<svg id="b55d0ad2-b3e7-48d6-bdce-7788ad3a0199" data-name="Layer 1" xmlns="http://www.w3.org/2000/svg" viewBox="0 0 217 40"><title>Untitled-4</title><path d="M211.86,0H5.31A5.24,5.24,0,0,0,.17,5.33V34.65A5.23,5.23,0,0,0,5.31,40H211.86A5.23,5.23,0,0,0,217,34.65V5.33A5.24,5.24,0,0,0,211.86,0ZM213,36.16a4.23,4.23,0,0,1-2.66.81,15.72,15.72,0,0,0-2.29.21,7.57,7.57,0,0,1-2.72-.19,4.08,4.08,0,0,0-2.77.24c-1.68.8-3.42.46-5.15.25a7.07,7.07,0,0,1-2.16-.5,1.52,1.52,0,0,0-1.25.07,4.83,4.83,0,0,1-4.15,0,1.91,1.91,0,0,0-1.74,0,7.35,7.35,0,0,1-5.82.6,2.71,2.71,0,0,0-1.44,0,2.87,2.87,0,0,1-1.85-.18,2.08,2.08,0,0,0-2,0,4.48,4.48,0,0,1-3.71.19,7.56,7.56,0,0,0-5,0,1.77,1.77,0,0,1-1.5.11,5.12,5.12,0,0,0-4-.42,16.38,16.38,0,0,1-3.5,0,6.87,6.87,0,0,0-2.75.56,6.32,6.32,0,0,1-5,0,10,10,0,0,0-3.37-.45,28.23,28.23,0,0,0-4.68.47,9.08,9.08,0,0,1-5-.79,3.1,3.1,0,0,0-2.58,0,5.58,5.58,0,0,1-3.86.18,5,5,0,0,0-2.3.12,7.76,7.76,0,0,1-4-.32,2.65,2.65,0,0,0-1.92,0,4.45,4.45,0,0,1-3.27,0,2.15,2.15,0,0,0-1.5,0,6.64,6.64,0,0,1-1.57.32l-.27,0a7.67,7.67,0,0,1-2.72-.3,3.76,3.76,0,0,0-2.18,0,8.53,8.53,0,0,1-3.48.29,4.12,4.12,0,0,0-2,.2,4.89,4.89,0,0,1-3.53-.08,5.31,5.31,0,0,0-1.88-.32,7,7,0,0,1-2.4.23A5.37,5.37,0,0,1,96.68,37a3.55,3.55,0,0,0-1.51.11,8.5,8.5,0,0,1-3.48.29,4.12,4.12,0,0,0-2,.2,4.86,4.86,0,0,1-3.52-.08,5.2,5.2,0,0,0-.61-.18,5.91,5.91,0,0,0-2.11.45,3.59,3.59,0,0,1-2.84,0,9.44,9.44,0,0,1-.89-.32c-2-1.07-3.9-.44-5.69.57a2.69,2.69,0,0,1-2.9.05,6.92,6.92,0,0,0-1.79-.72l-.42,0a5.7,5.7,0,0,0-2.68.44,3.59,3.59,0,0,1-2.84,0,8.35,8.35,0,0,1-.88-.32c-2-1.07-3.91-.44-5.7.57a2.69,2.69,0,0,1-2.9.05A6.58,6.58,0,0,0,48,37.68a4.72,4.72,0,0,1-3.33,0,7.42,7.42,0,0,0-4.62-.33,8.81,8.81,0,0,1-1.71.31l-.56.19a3.59,3.59,0,0,1-2.84,0,9.44,9.44,0,0,1-.89-.32c-2-1.07-3.9-.44-5.69.57a2.69,2.69,0,0,1-2.9.05,6.61,6.61,0,0,0-5.87-.42,4.72,4.72,0,0,1-3.33,0,7.42,7.42,0,0,0-4.62-.33,7.91,7.91,0,0,1-6.95-1,5,5,0,0,1-2.18-2.87,8.32,8.32,0,0,1,.09-5.31,2.79,2.79,0,0,0,0-2.16,4.37,4.37,0,0,1-.18-2.53,4.19,4.19,0,0,0-.05-2,4.23,4.23,0,0,1,.11-2.61,2.67,2.67,0,0,0-.09-2,6.45,6.45,0,0,1-.37-5c.43-1.21,0-2.55.25-3.83C3,3.92,4.84,2.37,9.22,2c.34,0,.68,0,1,0a9.24,9.24,0,0,0,3.14-.33c1.68-.52,3.23.15,4.78.56a5.3,5.3,0,0,0,3.2,0A9.67,9.67,0,0,1,25.12,2c1.23.08,2.45.11,3.68.13a.92.92,0,0,1,.34,0c2.67,1.22,5.25.11,7.86-.28a5.83,5.83,0,0,1,2,0A5.23,5.23,0,0,0,41,2a14.58,14.58,0,0,1,6.59.69,3.46,3.46,0,0,0,2.5-.31,5.91,5.91,0,0,1,5,0,4.6,4.6,0,0,0,2.7,0A16.59,16.59,0,0,1,64.05,2a3.06,3.06,0,0,1,.41.1l.94-.17a5.88,5.88,0,0,1,2,0,5.19,5.19,0,0,0,2,.06,14.62,14.62,0,0,1,6.6.69,3.44,3.44,0,0,0,2.49-.31A5.64,5.64,0,0,1,82.43,2l.18,0a5.82,5.82,0,0,1,2,0,5.24,5.24,0,0,0,2,.06,14.58,14.58,0,0,1,6.59.69,3.46,3.46,0,0,0,2.5-.31,5.91,5.91,0,0,1,5.05,0,4.6,4.6,0,0,0,2.7,0,16.59,16.59,0,0,1,6.2-.34,5.06,5.06,0,0,1,1.3.42,3.37,3.37,0,0,0,2.1.2,15.46,15.46,0,0,0,1.67-.35,9.45,9.45,0,0,1,5.9.22,2.47,2.47,0,0,0,1.85,0c2-.95,3.92-.58,5.86,0a4.5,4.5,0,0,0,3.09-.21A4,4,0,0,1,134,2.08c1.94.47,4,.26,5.89,1A1.6,1.6,0,0,0,141,3a14.85,14.85,0,0,1,1.74-.46,17.25,17.25,0,0,1,5.91-.39c2.19.13,4.39.41,6.55.4s4.61.08,6.91,0l.08,0c2.2-1,4.44-.51,6.66-.12,1.66.28,3.38,0,5,.5a1.13,1.13,0,0,0,.67-.08,3.47,3.47,0,0,1,2.44,0,6.31,6.31,0,0,0,2.45.16,12.75,12.75,0,0,0,3.67-.6,4.3,4.3,0,0,1,3.16.4,2,2,0,0,0,1.65,0,4.24,4.24,0,0,1,2.51-.33,3.51,3.51,0,0,0,1.37,0,5.29,5.29,0,0,1,2.79.22,2.22,2.22,0,0,0,1.66-.07,5.24,5.24,0,0,1,3.7-.13,3.07,3.07,0,0,0,1.85,0,8,8,0,0,1,3.57-.14A6.89,6.89,0,0,0,208,2.29a6.23,6.23,0,0,1,7.3,5.53,15.53,15.53,0,0,1-.55,5,5.87,5.87,0,0,0-.11,1.77c0,1.85.14,3.69.16,5.54a33.25,33.25,0,0,0,.31,5.81,4.15,4.15,0,0,1,0,1.61,7.11,7.11,0,0,0,.13,2.47A6,6,0,0,1,213,36.16Z" fill="#c67831"/><path d="M71.07,37.28a7.33,7.33,0,0,1,.69.34,6.16,6.16,0,0,0-.68-.34Z" fill="#c67831"/><path d="M214.44,27.82a9.18,9.18,0,0,0-.11-2.46,43.31,43.31,0,0,1-.21-5.22c0-.83-.07-1.64-.08-2.46a31.38,31.38,0,0,1,0-4.33c.17-1.32.25-2.68.55-4,.75-3.35-2.8-7.31-6.45-6.41a7.08,7.08,0,0,1-2.64.11,6.27,6.27,0,0,0-2.89,0,5,5,0,0,1-3.19,0,4.37,4.37,0,0,0-3,.28,2.55,2.55,0,0,1-1.92,0,4.53,4.53,0,0,0-2.53-.21,3.93,3.93,0,0,1-1.45,0,3.46,3.46,0,0,0-2.18.24,2.51,2.51,0,0,1-2.38,0,4,4,0,0,0-3.79.07,2.91,2.91,0,0,1-1.24.19,13.39,13.39,0,0,1-5.08-.38.43.43,0,0,0-.25,0,6.82,6.82,0,0,1-3.36,0c-1.67-.17-3.34-.25-5-.48-1.18-.16-2.43-.54-3.64,0a7,7,0,0,1-3.79.38,9,9,0,0,0-3.07,0,5.84,5.84,0,0,1-2.46-.06,16.62,16.62,0,0,0-4.93-.26,7.92,7.92,0,0,1-2.38-.22,4,4,0,0,0-1.79,0c-2.46.57-4.87,1.74-7.47.58a1.22,1.22,0,0,0-.34,0,15.07,15.07,0,0,1-3.14-.39,3.52,3.52,0,0,0-2.2,0,6,6,0,0,1-4.35.15c-.49-.14-1-.18-1.51-.3a4,4,0,0,0-2.6.22,3.94,3.94,0,0,1-2.92.3,9.56,9.56,0,0,0-5.89-.24c-1.15.31-2.39.8-3.61.23-2.36-1.12-4.78-.63-7.16-.24a6.84,6.84,0,0,1-3.78-.11,4.57,4.57,0,0,0-3.89.1,5.07,5.07,0,0,1-3.74.27,11.91,11.91,0,0,0-5.84-.52,4.16,4.16,0,0,1-1.45,0,9.68,9.68,0,0,0-2.74,0l0,0A4.5,4.5,0,0,0,79,2.92a5.1,5.1,0,0,1-3.75.27,11.91,11.91,0,0,0-5.84-.52,4.16,4.16,0,0,1-1.45,0,10.65,10.65,0,0,0-3.74.12v0a14.12,14.12,0,0,0-6,.19,6.83,6.83,0,0,1-3.78-.11,4.57,4.57,0,0,0-3.89.1,5.09,5.09,0,0,1-3.75.27A11.88,11.88,0,0,0,41,2.67a4.22,4.22,0,0,1-1.46,0,14.08,14.08,0,0,0-6.24.73,3.37,3.37,0,0,1-2.26,0,7.47,7.47,0,0,0-2.93-.54c-.91,0-1.83,0-2.74-.11a9.57,9.57,0,0,0-3.58.11,6.59,6.59,0,0,1-4.12,0,7.35,7.35,0,0,0-4.79-.35,3.8,3.8,0,0,1-1.61.15A11.06,11.06,0,0,0,7,3.1,4.45,4.45,0,0,0,3.87,5.45a9.84,9.84,0,0,0-1,4.31A5.53,5.53,0,0,1,2.77,12a5.81,5.81,0,0,0,.39,4.72,2.65,2.65,0,0,1,.12,2,4.48,4.48,0,0,0-.1,2.85,3.5,3.5,0,0,1,0,1.79A4.47,4.47,0,0,0,3.42,26a2.77,2.77,0,0,1-.07,2.17,4.48,4.48,0,0,0-.44,2.29c0,3.52.95,4.77,4,6.11a6.88,6.88,0,0,0,4.69,0,9.39,9.39,0,0,1,5.13.46,3.4,3.4,0,0,0,2.33.08,7.91,7.91,0,0,1,7.1.51,1.3,1.3,0,0,0,1.46,0,15.44,15.44,0,0,1,3-1.27,3.06,3.06,0,0,1,2.11-.06c.77.23,1.54.45,2.28.75a3.39,3.39,0,0,0,2.74,0l.15-.06.06-.09A12.2,12.2,0,0,0,40,36.57a9.4,9.4,0,0,1,5.13.46,3.4,3.4,0,0,0,2.33.08,7.89,7.89,0,0,1,7.09.51,1.3,1.3,0,0,0,1.46,0,15.79,15.79,0,0,1,3-1.27,3,3,0,0,1,2.1-.06c.77.23,1.55.45,2.28.75a3.6,3.6,0,0,0,1.25.29,10.47,10.47,0,0,1,2.79-.66,4.18,4.18,0,0,1,1.8,0,8.26,8.26,0,0,1,1.85.63,6.16,6.16,0,0,1,.68.34,1.3,1.3,0,0,0,1.46,0,15.27,15.27,0,0,1,3-1.27,3,3,0,0,1,2.1-.06c.77.23,1.54.45,2.28.75a3.39,3.39,0,0,0,2.74,0,6.47,6.47,0,0,1,2.06-.5,6.45,6.45,0,0,1,1.17.34,4,4,0,0,0,.87.22l1.46-.06.44-.12a5.85,5.85,0,0,1,2.2-.28l.76,0h.5a8.25,8.25,0,0,0,2.82-.42,1.85,1.85,0,0,1,.47-.08,1.17,1.17,0,0,1,.61.06h0l.12,0a5.08,5.08,0,0,0,3.36.3,5.89,5.89,0,0,1,3.6.32,3.84,3.84,0,0,0,2.77,0,5.85,5.85,0,0,1,2.2-.28,10.57,10.57,0,0,0,4.07-.4,2.4,2.4,0,0,1,1.52.09,7.73,7.73,0,0,0,4.64,0,2.54,2.54,0,0,1,1.84,0,3.7,3.7,0,0,0,2.85,0,3.15,3.15,0,0,1,2.34,0,6.67,6.67,0,0,0,3.46.32,6,6,0,0,1,2.89-.1,4.87,4.87,0,0,0,3.44-.21,3.61,3.61,0,0,1,2.83,0,7.31,7.31,0,0,0,3.63.89c1.42-.17,2.84-.28,4.25-.5a9.79,9.79,0,0,1,5.32.43,5.51,5.51,0,0,0,4.58,0,6.37,6.37,0,0,1,2.75-.57,20.23,20.23,0,0,0,4.79-.21,2.67,2.67,0,0,1,2.14.26,2.5,2.5,0,0,0,2.3.19,7.31,7.31,0,0,1,5.05.06,4,4,0,0,0,3.36-.19,2.55,2.55,0,0,1,2.4,0,2.23,2.23,0,0,0,1.5.18,3.63,3.63,0,0,1,2,.1,6.08,6.08,0,0,0,5-.63,2.52,2.52,0,0,1,2.37-.06,4.1,4.1,0,0,0,3.41.07,2.41,2.41,0,0,1,1.76-.19,19.31,19.31,0,0,0,3.61.68,5.63,5.63,0,0,0,3.44-.38,4.46,4.46,0,0,1,3-.27c2.22.6,4.33-.12,6.43-.5,1.9-.35,3-2.55,2.91-4.72A14.13,14.13,0,0,1,214.44,27.82ZM33.38,24.14a11,11,0,0,1-.21,1.48,8.2,8.2,0,0,1-.6,1.37,5.73,5.73,0,0,1-2.14,2.56L28.74,31a9.83,9.83,0,0,1-1.26.91,2.5,2.5,0,0,1-1,.18,1.86,1.86,0,0,1-.36,0l-.37,0a5.17,5.17,0,0,0-1.5.35,5.56,5.56,0,0,1-1.63.35,11,11,0,0,1-1.34-.11.4.4,0,0,1-.15,0L21,32.54H19.82A5.23,5.23,0,0,1,17,31.17a8.51,8.51,0,0,1-.88-.42l-1-.81a5.1,5.1,0,0,0-.84-.46,5.79,5.79,0,0,1-1.06-1.09c-.23-.26-.56-.65-1-1.19A3.23,3.23,0,0,1,12,26.11a3.31,3.31,0,0,1,.7-1.72c.64-.92,1-1.41,1-1.48a6.45,6.45,0,0,1,.42-2.11,6.29,6.29,0,0,1,1.05-1,4.19,4.19,0,0,1,1.34-1,2.14,2.14,0,0,0,1.09-.31,3.38,3.38,0,0,1,.91-.92,4.16,4.16,0,0,1,1.13-.1,1.42,1.42,0,0,1,.37.09,1.6,1.6,0,0,0,.36.08,6.35,6.35,0,0,0,.81-.08,5.16,5.16,0,0,1,.81-.09,2.77,2.77,0,0,1,.77.24c.52.22.79.32.81.32.21.17.52.39.92.67.14.05.36.14.66.28.68.42,1.11.69,1.27.81a3.49,3.49,0,0,1,1,1,6.67,6.67,0,0,0,.24.73,9.34,9.34,0,0,1,.88,1.23,1.84,1.84,0,0,1,.32,1,2.27,2.27,0,0,1-.18,1s-.28.42-.77,1.19a3,3,0,0,1-1.41,2A5,5,0,0,1,25.33,29a4.13,4.13,0,0,1-1.89.39H21.29a1.91,1.91,0,0,1-.91-.35,8.7,8.7,0,0,0-.95-.57,3.1,3.1,0,0,1-1.86-3,.61.61,0,0,1,.21-.43,1.63,1.63,0,0,0,.1-.42,2.48,2.48,0,0,0-.15-.68,2.19,2.19,0,0,1-.16-.67,2.69,2.69,0,0,1,.5-1.34,1.56,1.56,0,0,1,.74-.71,4.94,4.94,0,0,0,1.7-1,1.32,1.32,0,0,1,.64-.18,3.34,3.34,0,0,1,1.38.67c.19.08.48.2.86.39l.39.53a13,13,0,0,1,1.06.92,1.91,1.91,0,0,1,.32,1.17A6.23,6.23,0,0,1,24.72,25a4.17,4.17,0,0,1-1.39,1.78.91.91,0,0,1-.56.18,1.47,1.47,0,0,1-1.44-1l-.25-.25a.81.81,0,0,1-.24-.6,1,1,0,0,1,.14-.42,1.25,1.25,0,0,1,.37-.72,1.09,1.09,0,0,1,.68-.4c.63-.07.95-.2.95-.39s-.39-.56-1.16-1.12a.82.82,0,0,0-.39-.07,2.23,2.23,0,0,0-.84.21c-.66.28-1,.62-1.12,1a9.8,9.8,0,0,1-.18,1.58,2.33,2.33,0,0,0-.07.74,2.51,2.51,0,0,0,.39,1.26A22.05,22.05,0,0,0,21.68,28a6.93,6.93,0,0,0,1.48.24,2.13,2.13,0,0,0,.68-.17,2,2,0,0,1,.62-.18c.79-.09,1.31-.89,1.54-2.39a4.33,4.33,0,0,1,.48-1.11,3.29,3.29,0,0,0,.44-1.1,3.56,3.56,0,0,0-.81-1.53,5.3,5.3,0,0,0-1.23-1.35c-.38-.15-.9-.37-1.58-.67a8.89,8.89,0,0,0-.95-.85,1.39,1.39,0,0,0-.81-.17,5.29,5.29,0,0,0-.74.07q-.5.07-.75.09a1.83,1.83,0,0,0-.83.44,2.22,2.22,0,0,1-.79.45l-.86.21a3.25,3.25,0,0,0-1.48,2.71c0,.09,0,.25-.07.46a5,5,0,0,0,0,1.3c0-.1-.07-.05-.07.14l.07.07a1.21,1.21,0,0,1,0,.66,3.44,3.44,0,0,0,0,1.27,2.7,2.7,0,0,0,1,1.69l1.09.52.07,0A3.51,3.51,0,0,1,18.9,30c.17.26.67.47,1.52.63l.59.21a7.2,7.2,0,0,0,1.37.11,5.13,5.13,0,0,0,1.8-.5l1.19-.14a2.59,2.59,0,0,0,.95-.38,2.85,2.85,0,0,0,.81-.64l.7-.21a4.32,4.32,0,0,0,1.55-1.58,2.79,2.79,0,0,0,.45-1.45A4.43,4.43,0,0,1,30,24.69a5.42,5.42,0,0,0,.39-1.8,1.71,1.71,0,0,0-.56-1.34A2.61,2.61,0,0,1,29,20.39a2.06,2.06,0,0,0-.91-1.3,8.62,8.62,0,0,1-1.34-.67,6.15,6.15,0,0,0-1.37-1.16,9.12,9.12,0,0,1-1.16-.18,4.06,4.06,0,0,1-1.12-.63,2.41,2.41,0,0,0-1.44-.39,3.37,3.37,0,0,0-.71.1,3.45,3.45,0,0,1-.7.11,3.42,3.42,0,0,1-1.86-1,10.9,10.9,0,0,1-1.48-1,2.66,2.66,0,0,1-.63-1.79,6.21,6.21,0,0,0-.21-1.86c0-.73.51-1.39,1.54-2,.28-.33.64-.7,1.06-1.13a2.37,2.37,0,0,1,.91-.45,16.4,16.4,0,0,1,2.11-.95,1.44,1.44,0,0,1,.53-.07,3.27,3.27,0,0,1,.84.16,3.71,3.71,0,0,0,.84.15l.18,0h.18A7.17,7.17,0,0,0,26,7a3.1,3.1,0,0,1,2.28,1.3l.81.59a1.08,1.08,0,0,1,.49.92A1.92,1.92,0,0,1,29,10.82c-.21.78-.46,1.21-.74,1.3a5.6,5.6,0,0,1-.84.21,2,2,0,0,0-.53.35c-.26.22-.43.32-.53.32a6.73,6.73,0,0,1-.87-.07,6.84,6.84,0,0,0-.81-.07,5.13,5.13,0,0,1-1.3-.32,3.83,3.83,0,0,1-.9-.79c-.41-.43-.61-.73-.61-.89a1.09,1.09,0,0,1,.38-.69,1,1,0,0,1,.67-.4c.14,0,.37.26.7.77s.62.77.88.77l.11,0h.14a2.12,2.12,0,0,1,.47.09,1.93,1.93,0,0,0,.48.08c.21,0,.42-.17.63-.52a1.86,1.86,0,0,0,.32-.88q0-.39-1-1.44A.87.87,0,0,0,25,8.33l-.21,0h-.21a2.48,2.48,0,0,1-1-.28,2.52,2.52,0,0,0-1-.28,2.09,2.09,0,0,0-.95.18,4.74,4.74,0,0,1-.84.59,9.1,9.1,0,0,0-1.16.35c-.49.36-.74,1.14-.74,2.36a2.7,2.7,0,0,0,.07.77,2.22,2.22,0,0,0,.74,1,6.15,6.15,0,0,0,1,.84,7.08,7.08,0,0,0,1.58.25l.3,0,.51-.07L24,14a3.31,3.31,0,0,1,2.15.6,9.39,9.39,0,0,0,.91.84,4.89,4.89,0,0,0,1.2.46,3.58,3.58,0,0,1,1.16.56l.77.74c.23.09.56.24,1,.45a4,4,0,0,1,.74.57l.56.87a8.54,8.54,0,0,1,.88,1A4.85,4.85,0,0,1,34,22.35C33.85,22.75,33.64,23.34,33.38,24.14ZM53.73,19v.39a1.58,1.58,0,0,1-.46,1.16,2.54,2.54,0,0,0-.54.35L52.2,22a5.43,5.43,0,0,0-.5.74L51,24.84a1.34,1.34,0,0,0,.41.78,1.27,1.27,0,0,1,.4.77,1.9,1.9,0,0,1-.23.83,1.11,1.11,0,0,1-.51.58,4.36,4.36,0,0,1-1.16.28,1.78,1.78,0,0,1-.45-.14,1.46,1.46,0,0,0-.5-.14,2.68,2.68,0,0,1-1.19.73,1.42,1.42,0,0,1-.95-.35,1.1,1.1,0,0,1-.42-.88,2.41,2.41,0,0,1,.23-.81,5.76,5.76,0,0,0,.23-.56l-.64-1.37a7.46,7.46,0,0,0-.31-1.47.81.81,0,0,0,0-.25q-.28-.39-.45-.39c-.43,0-.86.67-1.3,2a.68.68,0,0,0,0,.31,1.8,1.8,0,0,0,.26.75,1.63,1.63,0,0,1,.27.74,2.11,2.11,0,0,1-.42,1.2,1.23,1.23,0,0,1-1,.61,2.15,2.15,0,0,1-.72-.16,1.81,1.81,0,0,0-.54-.16,1.63,1.63,0,0,0-.69.28,1.69,1.69,0,0,1-.61.28,1,1,0,0,1-.6-.17,2.35,2.35,0,0,1-.7-1.48,4.45,4.45,0,0,1,.4-.56,3.72,3.72,0,0,0,.4-.56,11.55,11.55,0,0,1-.45-1.23c-.05-.25-.13-.62-.25-1.08-.19-.24-.43-.6-.74-1.09a9.31,9.31,0,0,0-.07-1q-.34-.39-.84-1a1.82,1.82,0,0,1-.18-.49,1.43,1.43,0,0,1,0-.67c0-.18,0-.3-.14-.35a4,4,0,0,1-1.06-.31,1.07,1.07,0,0,1-.45-1,2.17,2.17,0,0,1,.14-1.06,3.37,3.37,0,0,1,1.23-.94c.23-.12.35-.25.35-.39s-.21-.35-.63-.56a3.6,3.6,0,0,1-.74-.84.73.73,0,0,1-.07-.35A1.75,1.75,0,0,1,36.83,12a1.49,1.49,0,0,1,1.12-.6,1.3,1.3,0,0,1,.35.07,1.38,1.38,0,0,0,.35.07c.33,0,.5-.18.5-.53v-.35a1.52,1.52,0,0,1,0-.31c0-.33.14-.5.42-.5a1.52,1.52,0,0,1,.7.25,1.16,1.16,0,0,1,.53.49l.28.67a1.42,1.42,0,0,1-.59,1.09,1.74,1.74,0,0,1-.92.35q-.45.07-.45.42c0,.09.11.25.35.46s.28.2.42.31.15.47.24.71a4.33,4.33,0,0,1,.32,1.09.87.87,0,0,1-.28.7c-.52.21-.77.36-.77.46q0,.45.84.45a1.08,1.08,0,0,1,.53.92,1.45,1.45,0,0,1-.28.7,1.35,1.35,0,0,0-.29.7,15.78,15.78,0,0,0,.46,2.53,17.48,17.48,0,0,1,.88,1.65,2.28,2.28,0,0,0,.18.46c.09.45.22.67.38.67s.29-.18.53-.53a1.42,1.42,0,0,0,.18-.82,2.44,2.44,0,0,1,.07-.76,3.11,3.11,0,0,1,.42-.46.77.77,0,0,0,.31-.59.87.87,0,0,0-.2-.5,2.33,2.33,0,0,1-.68-1.51,1.25,1.25,0,0,1,.35-.84,1.07,1.07,0,0,1,.81-.39,1.34,1.34,0,0,1,.78.39,2.91,2.91,0,0,0,.68.46,4.51,4.51,0,0,1,.46.17,2.18,2.18,0,0,0,.36-.16,1.43,1.43,0,0,1,.54-.15c.63,0,1.08.46,1.33,1.4a2.52,2.52,0,0,1-.23.67,2.32,2.32,0,0,0-.23.77A17,17,0,0,0,48,24.32c.14.61.4.91.77.91s.51-.32.6-.95c.05-.3.08-.64.11-1a11.73,11.73,0,0,1,.59-2,3.92,3.92,0,0,0,.5-.84v-.18a1.75,1.75,0,0,0-.35-.77,6.1,6.1,0,0,1-.48-.82,1.9,1.9,0,0,1-.05-.48c0-.72.46-1.17,1.38-1.33a.53.53,0,0,0,.48-.6c0-.33-.49-.63-1.48-.91A1.47,1.47,0,0,1,49.51,14a.91.91,0,0,1,1.44-.7c0,.14.12.32.21.53l.85.39a10.24,10.24,0,0,1,1.26.56,1.1,1.1,0,0,1,.46,1,3.48,3.48,0,0,1-.3,1.42,7.69,7.69,0,0,0-.3.73Zm7,6.4a3,3,0,0,0,.79.55l.61.19h.71a2,2,0,0,0,1.3-.7c0-.12,0-.31.07-.57a.6.6,0,0,1,.63-.56c.14,0,.3.15.49.46a4.84,4.84,0,0,0,.81,1.09,1,1,0,0,1,0,.28c0,.33-.36.62-1.09.88a9.21,9.21,0,0,1-1.26.45,8.53,8.53,0,0,1-2.21,1.06,3.54,3.54,0,0,1-1.34-.28,4.32,4.32,0,0,1-1-1.48,9.38,9.38,0,0,1-1.13-1,1.92,1.92,0,0,0-.17-.42,9,9,0,0,1-.81-.74c-.1-.17-.25-.4-.46-.71a2.59,2.59,0,0,1-.42-.59,3.81,3.81,0,0,1-.07-.92,2.89,2.89,0,0,1,.63-1.51A4.3,4.3,0,0,1,58,19.54a1.69,1.69,0,0,0,.38-.21A7.44,7.44,0,0,1,59.39,18a5.28,5.28,0,0,1,2.49-1,1.82,1.82,0,0,1,.86.28,1.49,1.49,0,0,1,.65.56,3.15,3.15,0,0,0,1.27,1.2,3.09,3.09,0,0,0,.6.73c.14.07.32.18.56.32a1.17,1.17,0,0,1,.45.91,1.38,1.38,0,0,1-.28.64,1.45,1.45,0,0,1-.49.52,6.34,6.34,0,0,1-1.09.39,3.54,3.54,0,0,0-.91.63l-.81.21a3.26,3.26,0,0,1-2.11,1l-.1,0h-.11q-.18,0-.21.24C60.16,24.84,60.34,25.07,60.69,25.37Zm12.58,0a3,3,0,0,0,.79.55l.61.19h.71a2,2,0,0,0,1.3-.7c0-.12,0-.31.07-.57a.6.6,0,0,1,.63-.56c.14,0,.3.15.49.46a4.84,4.84,0,0,0,.81,1.09,1,1,0,0,1,0,.28c0,.33-.36.62-1.09.88a9.21,9.21,0,0,1-1.26.45,8.53,8.53,0,0,1-2.21,1.06,3.54,3.54,0,0,1-1.34-.28,4.32,4.32,0,0,1-1-1.48,9.38,9.38,0,0,1-1.13-1,1.92,1.92,0,0,0-.17-.42,9,9,0,0,1-.81-.74c-.1-.17-.25-.4-.46-.71a2.59,2.59,0,0,1-.42-.59,3.81,3.81,0,0,1-.07-.92,2.89,2.89,0,0,1,.63-1.51,4.3,4.3,0,0,1,1.2-1.26,1.69,1.69,0,0,0,.38-.21A7.44,7.44,0,0,1,72,18a5.28,5.28,0,0,1,2.49-1,1.82,1.82,0,0,1,.86.28,1.49,1.49,0,0,1,.65.56,3.15,3.15,0,0,0,1.27,1.2,3.09,3.09,0,0,0,.6.73l.56.32a1.17,1.17,0,0,1,.45.91,1.38,1.38,0,0,1-.28.64,1.45,1.45,0,0,1-.49.52,6.34,6.34,0,0,1-1.09.39,3.54,3.54,0,0,0-.91.63l-.81.21a3.26,3.26,0,0,1-2.11,1l-.1,0H73q-.18,0-.21.24C72.74,24.84,72.92,25.07,73.27,25.37Zm14.24-7a1.8,1.8,0,0,1-.7-.27,1.83,1.83,0,0,0-.76-.26c-.19,0-.29,0-.31.14a8.06,8.06,0,0,0-.49,2.67,6.78,6.78,0,0,0,.13,1.13,6.58,6.58,0,0,1,.13,1.12c.06.05.09.09.09.14v1.48a2.86,2.86,0,0,0,.07.86,4.81,4.81,0,0,0,.62.79,1.52,1.52,0,0,1,.37,1c0,.4-.3.78-.88,1.16a3.61,3.61,0,0,0-.86.14,4.41,4.41,0,0,1-.9.14,3.25,3.25,0,0,1-1.37-.7.79.79,0,0,1-.32-.7c0-.4.39-.92,1.16-1.58.19-.16.28-.65.28-1.47,0-.14-.07-.41-.14-.81l-.28-1.47c0-.16.08-.51.17-1.05l.36-2.13c0-.59-.13-.88-.39-.88a1.48,1.48,0,0,0-.79.26,1.29,1.29,0,0,1-.61.27c-.57,0-.85-.62-.85-1.87a.4.4,0,0,1,.46-.45,1.68,1.68,0,0,1,.74.26,1.56,1.56,0,0,0,.74.27.62.62,0,0,0,.7-.7,2.24,2.24,0,0,0-.24-.91,1.41,1.41,0,0,0-.28-.52l-.9-.25a1.15,1.15,0,0,1-.55-1,1.09,1.09,0,0,1,.48-.73,1.33,1.33,0,0,1,.79-.42,2.68,2.68,0,0,0,.52.14l.46,0c.47.12.63.18.49.18a2,2,0,0,0,.44-.11,1.78,1.78,0,0,1,.51-.1,1.34,1.34,0,0,1,.86.38,1.11,1.11,0,0,1,.44.81,1.17,1.17,0,0,1-.31.65,1.66,1.66,0,0,1-.57.51c-.28.12-.42.51-.42,1.16s.19.85.56.85a1.4,1.4,0,0,0,1-.39,2,2,0,0,1,.5-.39c.32,0,.49.24.49.7C88.1,17.76,87.9,18.38,87.51,18.38ZM103.17,31.8l-.56.56a4.38,4.38,0,0,1-.81.46.26.26,0,0,0-.14.25,7.91,7.91,0,0,1,.56.87v.29c0,.63-.26.94-.77.94a2.43,2.43,0,0,1-1.12-.66l-1.06-.57A1.15,1.15,0,0,1,99,33a1.52,1.52,0,0,1,.6-1.05,2,2,0,0,1,.52-.18q.39-.11.39-.39c0-.07-.21-.19-.63-.38a1.92,1.92,0,0,1-1-.7,2.68,2.68,0,0,1-.14-1.22,5,5,0,0,0,0-1.21,5,5,0,0,0-1-.46c-.66-.25-1-.63-1-1.12a3.19,3.19,0,0,0,.17-.67v-.38c0-.12.15-.26.37-.43a1.72,1.72,0,0,0,.4-.35c.1-.19.24-.44.43-.77.35-.28.52-.52.52-.7s-.22-.47-.66-.78a17.68,17.68,0,0,1-1.66-.77,6.33,6.33,0,0,0-.77-.49c-.21,0-.56.62-1.05,1.87a2.69,2.69,0,0,0-.78,1.34,3,3,0,0,0,.07.81,8.81,8.81,0,0,1,1.06,1.88,1.2,1.2,0,0,1-.41.77,1.09,1.09,0,0,1-.75.43,2.39,2.39,0,0,1-.53-.09,1.58,1.58,0,0,0-1.05,0,2.39,2.39,0,0,1-.53.09q-.84,0-1-1a.59.59,0,0,0,0-.14.33.33,0,0,1,0-.14,1.29,1.29,0,0,1,.59-1,2,2,0,0,0,.57-.42l.17-.56a1.37,1.37,0,0,0,0-.18.52.52,0,0,1,0-.21,3.15,3.15,0,0,0-.15-.77c0-.07,0-.36.11-.88a7.57,7.57,0,0,0,.28-1.51c0,.16,0,0-.07-.56q0-.39,0-1.8a1.78,1.78,0,0,1,0-.28,1.86,1.86,0,0,0,0-.28,10.65,10.65,0,0,1-.36-1.4,3.07,3.07,0,0,1,.2-.78,2.79,2.79,0,0,0,.19-.77q0,.18-.24-.63s0-.13,0-.32,0-.29,0-.31.12-.31.24-.57A2.33,2.33,0,0,0,92,12.9a3.47,3.47,0,0,0-.63-2,3.61,3.61,0,0,1-.74-.49,1.25,1.25,0,0,1-.35-.84,1.07,1.07,0,0,1,.53-1.09,2.76,2.76,0,0,1,1.12-.14,2.73,2.73,0,0,1,.67.17,2.41,2.41,0,0,0,.77.18h.56A1.22,1.22,0,0,1,94.6,9c.25.19.38.37.38.56a2.06,2.06,0,0,1-.38.8,9.22,9.22,0,0,0-.57.92,8.84,8.84,0,0,1,0,1.47,3.5,3.5,0,0,0-.49.7,1.64,1.64,0,0,0,0,.7c.07.4.1.56.1.49v3a2.14,2.14,0,0,1-.07.45,3.23,3.23,0,0,0-.07.46,4.2,4.2,0,0,0,.07.58,3,3,0,0,1,.07.58,1.54,1.54,0,0,1-.12.42,1.54,1.54,0,0,0-.12.42c0,.25.09.38.28.38s.23-.37.49-1.12c.09-.31.25-.75.46-1.34a3.92,3.92,0,0,0,.77-.77c0-.28.14-.73.28-1.34.09-.14.22-.37.39-.7a8.21,8.21,0,0,1,.31-1.05l.6-.46L98.5,13a1.12,1.12,0,0,1,.7-.29l.18,0a.35.35,0,0,0,.21,0,7.73,7.73,0,0,1,1.54.25c.19,0,.51.45,1,1.23,0,0,0,.12,0,.31a1.78,1.78,0,0,1-.42,1.34l-.78.35a8.56,8.56,0,0,1-1,.39,7.53,7.53,0,0,1-.73-.25,1.49,1.49,0,0,1-.74-.28c-.1-.4-.21-.6-.35-.6s-.32.29-.46.88v.74a6,6,0,0,1-.11.88,2.54,2.54,0,0,1-.66.7l-.57.46c0,.07.16.19.46.38l.46.28a5.13,5.13,0,0,0,.81.78,11,11,0,0,1,1.12.21l.32.21a5.4,5.4,0,0,1,1.16.74,2.13,2.13,0,0,1,.49,1.3,1.74,1.74,0,0,1-.62,1.44c-.41.33-.61.57-.61.73,0,.33.4.67,1.19,1a1.46,1.46,0,0,1,.39.81,2.35,2.35,0,0,1-.11.55,2.08,2.08,0,0,0-.1.54,1.15,1.15,0,0,0,.63,1.06,6.58,6.58,0,0,1,1.34.91,2.74,2.74,0,0,1,.1.63,7.58,7.58,0,0,1,0,1A1.18,1.18,0,0,0,103.17,31.8Zm11.21-10.33c0,.21.05.42.07.63l.07,1a8.41,8.41,0,0,1-.31,2c0,.35.25.63.77.84.7.28,1,.58,1,.88a1.56,1.56,0,0,1-.44,1.11,1.42,1.42,0,0,1-1.07.47,2.37,2.37,0,0,1-1.12-.21,1.83,1.83,0,0,1-.37-.51c-.18-.29-.31-.44-.41-.44a4.1,4.1,0,0,0-1,.51l-.91.55a2.72,2.72,0,0,1-.57,0A11.25,11.25,0,0,1,107.7,28q-.14,0-.63-.63a6.64,6.64,0,0,1-1.16-2,2.4,2.4,0,0,0-.21-.6A4,4,0,0,1,104.3,22a1.8,1.8,0,0,1,.45-1l.71-.92a5.35,5.35,0,0,0,.35-.74c.09-.21.47-.45,1.12-.71a.56.56,0,0,0,.39-.31A2.43,2.43,0,0,1,109,17.08a5.55,5.55,0,0,1,1.12,0h.46a2.16,2.16,0,0,0,.63,0,3.68,3.68,0,0,1,1.69.33l.84.41a1.24,1.24,0,0,0,.58-.3,1.35,1.35,0,0,1,.79-.3.65.65,0,0,1,.36.07c.51.45.77.83.77,1.16a1.79,1.79,0,0,1-.88,1.34,3.52,3.52,0,0,0-.56.31,1.27,1.27,0,0,0-.49,1.06S114.36,21.26,114.38,21.47Zm16.17-7a2.12,2.12,0,0,1,.24,1.12l-.27.92a9.76,9.76,0,0,0-.11,1.44,2,2,0,0,0,0,.49c.08.54.12.86.12.95s-.05.79-.14,1.66a9.2,9.2,0,0,0,0,1.37,2.31,2.31,0,0,1-.06.39,3.36,3.36,0,0,0,0,.39,2.17,2.17,0,0,0,.14.61,2.13,2.13,0,0,1,.13.58,3.26,3.26,0,0,0,.07.57,6.12,6.12,0,0,0,.81.63,1.59,1.59,0,0,1,.44.74c.16.16.24.28.24.35s-.07,0-.21.32a1.35,1.35,0,0,1-1.44,1.23,3.33,3.33,0,0,1-.8-.44,2.53,2.53,0,0,0-.94-.44,1.55,1.55,0,0,0-.55.21,1.51,1.51,0,0,1-.61.22,10.7,10.7,0,0,0-1.22.21,1.57,1.57,0,0,1-.7.1,2.41,2.41,0,0,1-.51-.07,2.41,2.41,0,0,0-.5-.07,1.19,1.19,0,0,0-.34.07,1.13,1.13,0,0,1-.33.07h-.84a2.42,2.42,0,0,1-1.41-.51,2.3,2.3,0,0,1-.93-1.18,2.67,2.67,0,0,0-.14-.66,10.66,10.66,0,0,1-.94-.81,9,9,0,0,0-.63-1,1.67,1.67,0,0,1-.6-1.15,3,3,0,0,1,.11-.88,12.56,12.56,0,0,0,1-1.51,1.7,1.7,0,0,1,1-1.66,20.44,20.44,0,0,0,1.83-1.23,3.67,3.67,0,0,1,1.76-.8c1.33,0,2.12.35,2.35,1.05q.28.45.81,1.41a3.85,3.85,0,0,0,.17.7,7.56,7.56,0,0,0,.5,1.26,2,2,0,0,1-.21.69,1.94,1.94,0,0,0-.22.61,10.16,10.16,0,0,1-.1,1.23,7.4,7.4,0,0,0-.56.67,1.75,1.75,0,0,1-1.62.88,1.59,1.59,0,0,1-1.19-.39,1.34,1.34,0,0,1-.39-.42,5.87,5.87,0,0,0-.32-.74,2,2,0,0,1-.24-.66,6.41,6.41,0,0,1,.77-2.18c.16-.35.37-.53.63-.53a.78.78,0,0,1,.56.28.89.89,0,0,1,.3.56c0,.19,0,.48.09.88a.71.71,0,0,0,.35.21c.47,0,.71-.41.71-1.25a3.05,3.05,0,0,0-.39-1.5,1.36,1.36,0,0,0-1.2-.83,2.48,2.48,0,0,0-2.21,1.22c-.19.54-.42,1.11-.7,1.72a1.9,1.9,0,0,0-.53,1.19,4.24,4.24,0,0,0,.63,1.64,3,3,0,0,0,.42,1.16,2.32,2.32,0,0,1,.6.52,2.31,2.31,0,0,0,.56.49h.29a1.78,1.78,0,0,0,.42-.07,1.71,1.71,0,0,1,.42-.07,2.25,2.25,0,0,1,.51.19,1.86,1.86,0,0,0,.68.2c.14,0,.35-.17.62-.5a4.5,4.5,0,0,1,.47-.52h.21a1.57,1.57,0,0,0,.88-1,8.46,8.46,0,0,0,.21-1.16,12.76,12.76,0,0,1,0-1.58,11,11,0,0,1,.24-1.26,3.23,3.23,0,0,0,0-.35q0-.18,0-.57l0-.38a6,6,0,0,0-.23-.71,5.81,5.81,0,0,1-.26-.84l-.11-.84-.1-.35a1,1,0,0,1,.07-.43l.28-.56a1.75,1.75,0,0,0,.21-.77l-.11-.49c-.07-.33-.11-.59-.14-.78a3.81,3.81,0,0,0,0-.84q-.1-.39-1-1a2.36,2.36,0,0,1-.59-1.09,1.44,1.44,0,0,1-.07-.57.81.81,0,0,1,.49-.7,1.88,1.88,0,0,1,.95-.28,2.73,2.73,0,0,1,.59.09,2.89,2.89,0,0,0,.6.09l.67-.09.67-.09a1.65,1.65,0,0,1,1.3.42,2.33,2.33,0,0,1,.07.71,1.11,1.11,0,0,1-.42.68,2.12,2.12,0,0,0-.51.6c-.06.13-.15.41-.29.83a2.09,2.09,0,0,0-.5,1.34A3.31,3.31,0,0,0,130.55,14.49Zm13.91,7c0,.21,0,.42.07.63l.07,1a8.41,8.41,0,0,1-.31,2c0,.35.25.63.77.84.7.28,1.05.58,1.05.88a1.56,1.56,0,0,1-.44,1.11,1.42,1.42,0,0,1-1.07.47,2.4,2.4,0,0,1-1.12-.21,1.83,1.83,0,0,1-.37-.51c-.18-.29-.31-.44-.41-.44a4.1,4.1,0,0,0-1,.51l-.91.55a2.72,2.72,0,0,1-.57,0,11.1,11.1,0,0,1-2.45-.28c-.1,0-.31-.23-.64-.63a6.64,6.64,0,0,1-1.16-2,2.4,2.4,0,0,0-.21-.6,4,4,0,0,1-1.4-2.82,1.8,1.8,0,0,1,.45-1l.71-.92a5.35,5.35,0,0,0,.35-.74c.09-.21.47-.45,1.12-.71a.56.56,0,0,0,.39-.31,2.43,2.43,0,0,1,1.72-1.27,5.55,5.55,0,0,1,1.12,0h.46a2.16,2.16,0,0,0,.63,0,3.65,3.65,0,0,1,1.69.33l.84.41a1.24,1.24,0,0,0,.58-.3,1.35,1.35,0,0,1,.79-.3.65.65,0,0,1,.36.07c.51.45.77.83.77,1.16a1.79,1.79,0,0,1-.88,1.34,3.52,3.52,0,0,0-.56.31,1.27,1.27,0,0,0-.49,1.06S144.44,21.26,144.46,21.47Zm4.68-8.08a9.36,9.36,0,0,1,1.09-1.06.87.87,0,0,1,.56-.17,1.48,1.48,0,0,1,.77.3c.3.2.47.39.49.58l.07.49a1.14,1.14,0,0,1,0,.21.68.68,0,0,0,0,.21,7.61,7.61,0,0,1-.1,1,1.19,1.19,0,0,1-.51.58,1.44,1.44,0,0,1-.76.26,1.15,1.15,0,0,1-.7-.31,18.29,18.29,0,0,1-.95-1.83A.38.38,0,0,1,149.14,13.39ZM152.33,28l-.07,0h-.1a1.46,1.46,0,0,0-.49.15,1.72,1.72,0,0,1-.44.15h0a5.08,5.08,0,0,0-1.36-.44.73.73,0,0,1-.59-.74,1,1,0,0,1,.17-.57,4.53,4.53,0,0,0,.7-1,7.49,7.49,0,0,0,.11-1.52,2,2,0,0,0-.25-.73,2.23,2.23,0,0,1-.07-.6c0,.16.06-.13.18-.88l.14-.84a3.59,3.59,0,0,0-.26-.71,1.73,1.73,0,0,0-.11-.52,5.11,5.11,0,0,1-.93-.81,3.67,3.67,0,0,1-.07-.77.85.85,0,0,1,1-1,1.42,1.42,0,0,1,.41.12,1.38,1.38,0,0,0,.4.12,1.73,1.73,0,0,0,.6-.17,1.82,1.82,0,0,1,.6-.18,1,1,0,0,1,.73.37,1.1,1.1,0,0,1,.36.76.66.66,0,0,1-.11.45,12.85,12.85,0,0,1-.84,1.2,3.41,3.41,0,0,0-.25,1.72v1.12a2.15,2.15,0,0,0,.11.57l.1.45v.64a4.33,4.33,0,0,0,0,.87.94.94,0,0,0,.38.6,1.9,1.9,0,0,1,.78,1.3C153.18,27.68,152.9,28,152.33,28Zm7.21-.88a1.18,1.18,0,0,0-.39.18c-.21.23-.47.49-.77.77a.73.73,0,0,1-.39.07,1.12,1.12,0,0,1-1-.49,3.89,3.89,0,0,1-.85-1.79,1.21,1.21,0,0,1,.74-1,7.71,7.71,0,0,1,.7-.77.73.73,0,0,1,.46-.11.82.82,0,0,1,.56.14l.07.11a7.55,7.55,0,0,0,.71.91,2.55,2.55,0,0,1,.66,1.09C160.06,26.67,159.89,27,159.54,27.09Zm14.28-2.39a1.32,1.32,0,0,0,0,.25,2.51,2.51,0,0,1-1.62,1.93l-2.39.81a7.68,7.68,0,0,0-.91.07,1.56,1.56,0,0,0-.56.16l-.42.16a7.13,7.13,0,0,1-1,0c-1.15-.37-2.12-1.43-2.92-3.16a6,6,0,0,0-1.09-.81,2.06,2.06,0,0,1-.67-1.76,4.47,4.47,0,0,1,.32-1.86,1.77,1.77,0,0,1,.51-.58,3.59,3.59,0,0,0,.44-.4,8.19,8.19,0,0,1,1.09-1.27l.63-.31a8.41,8.41,0,0,1,1.65-1.2c.24-.07.61-.2,1.13-.39a6.6,6.6,0,0,1,.87,0,3.39,3.39,0,0,1,1.43.47,3.72,3.72,0,0,0,1.39.51,1.43,1.43,0,0,1,.73.39,2.63,2.63,0,0,1,.95,1.12,2.23,2.23,0,0,1,.07.67,2.6,2.6,0,0,1-.21.95.64.64,0,0,1-.53.32,12.84,12.84,0,0,1-1.4.17,1.1,1.1,0,0,1-.88-.53l-.49-.93a5.77,5.77,0,0,0-.35-.82.82.82,0,0,0-.74-.39,3.41,3.41,0,0,0-1.09.11l-.91.42a1.86,1.86,0,0,0-.67.85,7.77,7.77,0,0,1-.21.86,8.11,8.11,0,0,0-.42.74,3.07,3.07,0,0,0-.28,1.17,3.74,3.74,0,0,0,.21,1,4.38,4.38,0,0,0,1.37,2.2,2.47,2.47,0,0,0,.77.3,4.23,4.23,0,0,0,.81.19,1.13,1.13,0,0,1,.3,0l.26,0a1.91,1.91,0,0,0,1.9-1.31,2.14,2.14,0,0,1,.56-.9,2,2,0,0,1,1.16-.39.44.44,0,0,1,.21.07c.75.1,1.12.38,1.12.85A.77.77,0,0,1,173.82,24.7Zm11.83-.21a5.33,5.33,0,0,1-1.51,1.86l-.88,1.3c-.24.36-.92.53-2,.53a2.05,2.05,0,0,1-1.76-1.12c-.23-.19-.57-.51-1-.95-.14-.26-.34-.58-.59-.95a10,10,0,0,0-.92-.77,3.12,3.12,0,0,1-1-2.64,4.62,4.62,0,0,1,1.16-1.93c.07-.07.28-.32.63-.74.26-.21.78-.56,1.55-1a2.46,2.46,0,0,0,.7-.29c.71-.65,1.16-1,1.37-1a5.62,5.62,0,0,1,1.76.32,11.31,11.31,0,0,1,1.69,1.23l.35.84c.4.38.92.93,1.58,1.65a2.6,2.6,0,0,1,.42,1.58C187.12,23,186.63,23.7,185.65,24.49Zm18.74,5.41a2.79,2.79,0,0,0-1.23.51,1.24,1.24,0,0,1-.75.37c-.52,0-.77-.37-.77-1.12v-.39a5,5,0,0,0,.3-.91,6.81,6.81,0,0,1-.45-1.37,2.6,2.6,0,0,1-.07-.6,2.15,2.15,0,0,1,.18-.67,2.11,2.11,0,0,0,.18-.74,2.82,2.82,0,0,0-.44-1.12,3.94,3.94,0,0,1-.5-1.14c0-.25-.06-.66-.08-1.25-.14-.19-.34-.48-.6-.88a1.38,1.38,0,0,1-.11-.42c0-.47-.35-.7-.91-.7l-.49.21a.66.66,0,0,0-.42.24,3.57,3.57,0,0,0-.25,1.16,3,3,0,0,0,.32,1,3.24,3.24,0,0,1,.17.95,1.37,1.37,0,0,1-.28.74.93.93,0,0,0-.17.49,3.86,3.86,0,0,0,.35,1.27,4.06,4.06,0,0,1,.35,1.3c0,.61-.26.91-.77.91a1.68,1.68,0,0,1-.44-.09,1.76,1.76,0,0,0-.44-.09,1.61,1.61,0,0,0-.37.22,1.12,1.12,0,0,1-.55.21c-.16,0-.34-.13-.52-.37a1.1,1.1,0,0,1-.28-.62,1.65,1.65,0,0,1,.47-.81,1.58,1.58,0,0,0,.47-.94,2.39,2.39,0,0,0-.08-.5,1.9,1.9,0,0,1-.09-.49c0-.14.17-.56.39-1.26V22a5.17,5.17,0,0,1,.17-.91,1.75,1.75,0,0,0-.33-.93.93.93,0,0,0-.72-.51c-.75,0-1.18.45-1.27,1.37a5.39,5.39,0,0,1,0,1.37,12.44,12.44,0,0,0-1.06,1.76,5.18,5.18,0,0,0-.28,1.75,2.84,2.84,0,0,0,.12.69,2.45,2.45,0,0,1,.13.68,2.72,2.72,0,0,1-.35,1.15,2.5,2.5,0,0,0-.36,1,2.32,2.32,0,0,0,.3.92,2.24,2.24,0,0,1,.3.91q0,.84-.6.84h-.84a3.07,3.07,0,0,1-.95-.56,8.05,8.05,0,0,1-1.09-.42.8.8,0,0,1-.35-.67,1.93,1.93,0,0,1,.18-.74c.14-.16.35-.4.63-.7a4.11,4.11,0,0,0,1-2.35V24.28a9.92,9.92,0,0,1,1.3-2,.81.81,0,0,0,.1-.46,5.38,5.38,0,0,0-.14-1.19,3.65,3.65,0,0,0-.52-1.41c-.64-.63-1-1.09-1-1.37q0-1,1.23-1a3,3,0,0,1,1.39.41,2.94,2.94,0,0,0,1,.4,5.39,5.39,0,0,1,1.27-.21l.31,0h.28a1.58,1.58,0,0,0,.55-.19,1.62,1.62,0,0,1,.54-.19,2.05,2.05,0,0,1,.71.17,1.85,1.85,0,0,0,.59.18,1.48,1.48,0,0,0,.37-.07,1.56,1.56,0,0,1,.37-.07,2.52,2.52,0,0,1,.9.26,2.29,2.29,0,0,0,.86.27,2.78,2.78,0,0,0,.93-.37,2.55,2.55,0,0,1,1.18-.37,1.13,1.13,0,0,1,.82.47,1.45,1.45,0,0,1,.41.9.81.81,0,0,1-.67.84,4.65,4.65,0,0,0-.67.18,4.86,4.86,0,0,1-.38.59l-.6.5a.2.2,0,0,0-.11.17,3.51,3.51,0,0,0,.21.67c0,.19,0,.47,0,.84l.76,1a2.62,2.62,0,0,1,.33,1.2v.7a8.42,8.42,0,0,0,.1,1.23c.14.33.38.82.71,1.48,0,.07.2.21.52.42a.75.75,0,0,1,.28.7A.88.88,0,0,1,204.39,29.9Z" fill="#ffab15"/><path d="M183.29,20.06c-.14-.32-.29-.51-.45-.56-.73-.23-1.16-.36-1.3-.38a3.94,3.94,0,0,0-1.23.28,2.25,2.25,0,0,0-1,1.37c-.14.16-.32.4-.53.7a2.68,2.68,0,0,0-.14,1.05,6,6,0,0,0,.63,1.94c0,.09.31.27.84.52.54.54.93.81,1.16.81a3.34,3.34,0,0,0,1-.6c.57,0,.93-.15,1.09-.45a2.25,2.25,0,0,1,.25-.46,5.21,5.21,0,0,0,.63-.81,3.3,3.3,0,0,0,0-.56V21.75a10.08,10.08,0,0,1-.67-1A6.85,6.85,0,0,0,183.29,20.06Z" fill="#ffab15"/><path d="M142.81,20.94a2.41,2.41,0,0,0-.53-1.77,2.59,2.59,0,0,0-1.82-.51.76.76,0,0,0-.67.38c-.07.15-.19.34-.35.6l-1,.88a3.39,3.39,0,0,0-.92,2.39,2.23,2.23,0,0,0,.23.83,3.39,3.39,0,0,1,.23.58,6.8,6.8,0,0,0,.18,1.33,1.62,1.62,0,0,0,1.4.88q3.27,0,3.27-2.74a3.07,3.07,0,0,0-.07-.56,3.26,3.26,0,0,1-.07-.57,7.31,7.31,0,0,1,.07-.86A7,7,0,0,0,142.81,20.94Z" fill="#ffab15"/><path d="M73.58,23.23c.47-.17.78-.28.92-.35a2.77,2.77,0,0,0,.77-.64.66.66,0,0,0,.11-.45,1.51,1.51,0,0,0-.32-.92l-.35-.38a5.11,5.11,0,0,0-.6-1.2,1,1,0,0,0-.39-.07.87.87,0,0,0-.73.49,6.71,6.71,0,0,1-.78,1.06l-.17.52c-.14.24-.39.64-.74,1.2,0,.05-.07.15-.07.32a1.23,1.23,0,0,0,.28.75.79.79,0,0,0,.63.37,1.79,1.79,0,0,0,.78-.33A3.06,3.06,0,0,1,73.58,23.23Z" fill="#ffab15"/><path d="M112.73,20.94a2.41,2.41,0,0,0-.53-1.77,2.59,2.59,0,0,0-1.82-.51.76.76,0,0,0-.67.38c-.07.15-.19.34-.35.6l-1,.88a3.39,3.39,0,0,0-.92,2.39,2.23,2.23,0,0,0,.23.83,3.39,3.39,0,0,1,.23.58,6.8,6.8,0,0,0,.18,1.33,1.62,1.62,0,0,0,1.4.88q3.27,0,3.27-2.74a3.07,3.07,0,0,0-.07-.56,3.26,3.26,0,0,1-.07-.57,7.31,7.31,0,0,1,.07-.86A7,7,0,0,0,112.73,20.94Z" fill="#ffab15"/><path d="M61,23.23c.47-.17.78-.28.92-.35a2.77,2.77,0,0,0,.77-.64.66.66,0,0,0,.11-.45,1.51,1.51,0,0,0-.32-.92l-.35-.38a5.11,5.11,0,0,0-.6-1.2,1,1,0,0,0-.39-.07.87.87,0,0,0-.73.49,6.71,6.71,0,0,1-.78,1.06l-.17.52c-.14.24-.39.64-.74,1.2,0,.05-.07.15-.07.32a1.23,1.23,0,0,0,.28.75.79.79,0,0,0,.63.37,1.79,1.79,0,0,0,.78-.33A3.06,3.06,0,0,1,61,23.23Z" fill="#ffab15"/><path d="M215.18,27.55a4.15,4.15,0,0,0,0-1.61,33.25,33.25,0,0,1-.31-5.81c0-1.85-.12-3.69-.16-5.54a5.87,5.87,0,0,1,.11-1.77,15.53,15.53,0,0,0,.55-5A6.23,6.23,0,0,0,208,2.29a6.89,6.89,0,0,1-2.64.08,8,8,0,0,0-3.57.14,3.07,3.07,0,0,1-1.85,0,5.24,5.24,0,0,0-3.7.13,2.22,2.22,0,0,1-1.66.07,5.29,5.29,0,0,0-2.79-.22,3.51,3.51,0,0,1-1.37,0,4.24,4.24,0,0,0-2.51.33,2,2,0,0,1-1.65,0,4.3,4.3,0,0,0-3.16-.4,12.75,12.75,0,0,1-3.67.6A6.31,6.31,0,0,1,177,2.79a3.47,3.47,0,0,0-2.44,0,1.13,1.13,0,0,1-.67.08c-1.64-.52-3.36-.22-5-.5-2.22-.39-4.46-.9-6.66.12l-.08,0c-2.3.11-4.62,0-6.91,0s-4.36-.27-6.55-.4a17.25,17.25,0,0,0-5.91.39A14.85,14.85,0,0,0,141,3a1.6,1.6,0,0,1-1.17.15c-1.89-.76-4-.55-5.89-1a4,4,0,0,0-2.54.15,4.5,4.5,0,0,1-3.09.21c-1.94-.54-3.9-.91-5.86,0a2.47,2.47,0,0,1-1.85,0,9.45,9.45,0,0,0-5.9-.22,15.46,15.46,0,0,1-1.67.35,3.37,3.37,0,0,1-2.1-.2,5.06,5.06,0,0,0-1.3-.42,16.59,16.59,0,0,0-6.2.34,4.6,4.6,0,0,1-2.7,0,5.91,5.91,0,0,0-5.05,0,3.46,3.46,0,0,1-2.5.31A14.58,14.58,0,0,0,86.62,2a5.24,5.24,0,0,1-2-.06,5.82,5.82,0,0,0-2,0l-.18,0a5.64,5.64,0,0,0-3.93.41A3.44,3.44,0,0,1,76,2.67,14.62,14.62,0,0,0,69.41,2a5.19,5.19,0,0,1-2-.06,5.88,5.88,0,0,0-2,0l-.94.17a3.06,3.06,0,0,0-.41-.1,16.59,16.59,0,0,0-6.2.34,4.6,4.6,0,0,1-2.7,0,5.91,5.91,0,0,0-5,0,3.46,3.46,0,0,1-2.5.31A14.58,14.58,0,0,0,41,2a5.23,5.23,0,0,1-2-.06,5.82,5.82,0,0,0-2,0c-2.61.39-5.19,1.5-7.86.28a.92.92,0,0,0-.34,0c-1.23,0-2.45,0-3.68-.13a9.67,9.67,0,0,0-3.75.2,5.3,5.3,0,0,1-3.2,0c-1.55-.41-3.1-1.08-4.78-.56A9.24,9.24,0,0,1,10.25,2c-.35,0-.69,0-1,0C4.84,2.37,3,3.92,2.34,8c-.22,1.28.18,2.62-.25,3.83a6.45,6.45,0,0,0,.37,5,2.67,2.67,0,0,1,.09,2,4.23,4.23,0,0,0-.11,2.61,4.19,4.19,0,0,1,.05,2,4.37,4.37,0,0,0,.18,2.53,2.79,2.79,0,0,1,0,2.16,8.32,8.32,0,0,0-.09,5.31,5,5,0,0,0,2.18,2.87,7.91,7.91,0,0,0,7,1,7.42,7.42,0,0,1,4.62.33,4.72,4.72,0,0,0,3.33,0,6.61,6.61,0,0,1,5.87.42,2.69,2.69,0,0,0,2.9-.05c1.79-1,3.67-1.64,5.69-.57a9.44,9.44,0,0,0,.89.32,3.59,3.59,0,0,0,2.84,0l.56-.19a8.81,8.81,0,0,0,1.71-.31,7.42,7.42,0,0,1,4.62.33,4.72,4.72,0,0,0,3.33,0,6.58,6.58,0,0,1,5.86.42,2.69,2.69,0,0,0,2.9-.05c1.79-1,3.67-1.64,5.7-.57a8.35,8.35,0,0,0,.88.32,3.59,3.59,0,0,0,2.84,0,5.7,5.7,0,0,1,2.68-.44l.42,0a6.92,6.92,0,0,1,1.79.72,2.69,2.69,0,0,0,2.9-.05c1.79-1,3.67-1.64,5.69-.57a9.44,9.44,0,0,0,.89.32,3.59,3.59,0,0,0,2.84,0,5.91,5.91,0,0,1,2.11-.45,5.2,5.2,0,0,1,.61.18,4.86,4.86,0,0,0,3.52.08,4.12,4.12,0,0,1,2-.2,8.5,8.5,0,0,0,3.48-.29A3.55,3.55,0,0,1,96.68,37a5.37,5.37,0,0,0,2.38.43,7,7,0,0,0,2.4-.23,5.31,5.31,0,0,1,1.88.32,4.89,4.89,0,0,0,3.53.08,4.12,4.12,0,0,1,2-.2,8.53,8.53,0,0,0,3.48-.29,3.76,3.76,0,0,1,2.18,0,7.67,7.67,0,0,0,2.72.3l.27,0a6.64,6.64,0,0,0,1.57-.32,2.15,2.15,0,0,1,1.5,0,4.45,4.45,0,0,0,3.27,0,2.65,2.65,0,0,1,1.92,0,7.76,7.76,0,0,0,4,.32,5,5,0,0,1,2.3-.12,5.58,5.58,0,0,0,3.86-.18,3.1,3.1,0,0,1,2.58,0,9.08,9.08,0,0,0,5,.79,28.23,28.23,0,0,1,4.68-.47,10,10,0,0,1,3.37.45,6.32,6.32,0,0,0,5,0,6.87,6.87,0,0,1,2.75-.56,16.38,16.38,0,0,0,3.5,0,5.12,5.12,0,0,1,4,.42,1.77,1.77,0,0,0,1.5-.11,7.56,7.56,0,0,1,5,0,4.48,4.48,0,0,0,3.71-.19,2.08,2.08,0,0,1,2,0,2.87,2.87,0,0,0,1.85.18,2.71,2.71,0,0,1,1.44,0,7.35,7.35,0,0,0,5.82-.6,1.91,1.91,0,0,1,1.74,0,4.83,4.83,0,0,0,4.15,0A1.52,1.52,0,0,1,195.2,37a7.07,7.07,0,0,0,2.16.5c1.73.21,3.47.55,5.15-.25a4.08,4.08,0,0,1,2.77-.24,7.57,7.57,0,0,0,2.72.19,15.72,15.72,0,0,1,2.29-.21,4.23,4.23,0,0,0,2.66-.81A6,6,0,0,0,215.31,30,7.11,7.11,0,0,1,215.18,27.55Zm-3.44,8.23c-2.1.38-4.21,1.1-6.43.5a4.46,4.46,0,0,0-3,.27,5.63,5.63,0,0,1-3.44.38,19.31,19.31,0,0,1-3.61-.68,2.41,2.41,0,0,0-1.76.19,4.1,4.1,0,0,1-3.41-.07,2.52,2.52,0,0,0-2.37.06,6.08,6.08,0,0,1-5,.63,3.63,3.63,0,0,0-2-.1,2.23,2.23,0,0,1-1.5-.18,2.55,2.55,0,0,0-2.4,0,4,4,0,0,1-3.36.19,7.31,7.31,0,0,0-5.05-.06,2.5,2.5,0,0,1-2.3-.19,2.67,2.67,0,0,0-2.14-.26,20.23,20.23,0,0,1-4.79.21,6.37,6.37,0,0,0-2.75.57,5.51,5.51,0,0,1-4.58,0,9.79,9.79,0,0,0-5.32-.43c-1.41.22-2.83.33-4.25.5a7.31,7.31,0,0,1-3.63-.89,3.61,3.61,0,0,0-2.83,0,4.87,4.87,0,0,1-3.44.21,6,6,0,0,0-2.89.1,6.67,6.67,0,0,1-3.46-.32,3.15,3.15,0,0,0-2.34,0,3.7,3.7,0,0,1-2.85,0,2.54,2.54,0,0,0-1.84,0,7.73,7.73,0,0,1-4.64,0,2.4,2.4,0,0,0-1.52-.09,10.57,10.57,0,0,1-4.07.4,5.85,5.85,0,0,0-2.2.28,3.84,3.84,0,0,1-2.77,0,5.89,5.89,0,0,0-3.6-.32,5.08,5.08,0,0,1-3.36-.3l-.12,0h0a1.17,1.17,0,0,0-.61-.06,1.85,1.85,0,0,0-.47.08,8.25,8.25,0,0,1-2.82.42h-.5l-.76,0a5.85,5.85,0,0,0-2.2.28l-.44.12-1.46.06a4,4,0,0,1-.87-.22,6.45,6.45,0,0,0-1.17-.34,6.47,6.47,0,0,0-2.06.5,3.39,3.39,0,0,1-2.74,0c-.74-.3-1.51-.52-2.28-.75a3,3,0,0,0-2.1.06,15.27,15.27,0,0,0-3,1.27,1.3,1.3,0,0,1-1.46,0,7.33,7.33,0,0,0-.69-.34h0a8.26,8.26,0,0,0-1.85-.63,4.18,4.18,0,0,0-1.8,0,10.47,10.47,0,0,0-2.79.66,3.6,3.6,0,0,1-1.25-.29c-.73-.3-1.51-.52-2.28-.75a3,3,0,0,0-2.1.06,15.79,15.79,0,0,0-3,1.27,1.3,1.3,0,0,1-1.46,0,7.89,7.89,0,0,0-7.09-.51A3.4,3.4,0,0,1,45.13,37,9.4,9.4,0,0,0,40,36.57a12.2,12.2,0,0,1-2.06.37l-.06.09-.15.06a3.39,3.39,0,0,1-2.74,0c-.74-.3-1.51-.52-2.28-.75a3.06,3.06,0,0,0-2.11.06,15.44,15.44,0,0,0-3,1.27,1.3,1.3,0,0,1-1.46,0,7.91,7.91,0,0,0-7.1-.51A3.4,3.4,0,0,1,16.72,37a9.39,9.39,0,0,0-5.13-.46,6.88,6.88,0,0,1-4.69,0c-3-1.34-4-2.59-4-6.11a4.48,4.48,0,0,1,.44-2.29A2.77,2.77,0,0,0,3.42,26a4.47,4.47,0,0,1-.21-2.61,3.5,3.5,0,0,0,0-1.79,4.48,4.48,0,0,1,.1-2.85,2.65,2.65,0,0,0-.12-2A5.81,5.81,0,0,1,2.77,12a5.53,5.53,0,0,0,.14-2.22,9.84,9.84,0,0,1,1-4.31A4.45,4.45,0,0,1,7,3.1a11.06,11.06,0,0,1,4.32-.49,3.8,3.8,0,0,0,1.61-.15,7.35,7.35,0,0,1,4.79.35,6.59,6.59,0,0,0,4.12,0,9.57,9.57,0,0,1,3.58-.11c.91.07,1.83.13,2.74.11a7.47,7.47,0,0,1,2.93.54,3.37,3.37,0,0,0,2.26,0,14.08,14.08,0,0,1,6.24-.73,4.22,4.22,0,0,0,1.46,0,11.88,11.88,0,0,1,5.83.52,5.09,5.09,0,0,0,3.75-.27,4.57,4.57,0,0,1,3.89-.1,6.83,6.83,0,0,0,3.78.11,14.12,14.12,0,0,1,6-.19v0A10.65,10.65,0,0,1,68,2.65a4.16,4.16,0,0,0,1.45,0,11.91,11.91,0,0,1,5.84.52A5.1,5.1,0,0,0,79,2.92a4.5,4.5,0,0,1,3.46-.25l0,0a9.68,9.68,0,0,1,2.74,0,4.16,4.16,0,0,0,1.45,0,11.91,11.91,0,0,1,5.84.52,5.07,5.07,0,0,0,3.74-.27,4.57,4.57,0,0,1,3.89-.1,6.84,6.84,0,0,0,3.78.11c2.38-.39,4.8-.88,7.16.24,1.22.57,2.46.08,3.61-.23a9.56,9.56,0,0,1,5.89.24,3.94,3.94,0,0,0,2.92-.3,4,4,0,0,1,2.6-.22c.5.12,1,.16,1.51.3a6,6,0,0,0,4.35-.15,3.52,3.52,0,0,1,2.2,0,15.07,15.07,0,0,0,3.14.39,1.22,1.22,0,0,1,.34,0c2.6,1.16,5,0,7.47-.58a4,4,0,0,1,1.79,0,7.92,7.92,0,0,0,2.38.22,16.62,16.62,0,0,1,4.93.26,5.84,5.84,0,0,0,2.46.06,9,9,0,0,1,3.07,0,7,7,0,0,0,3.79-.38c1.21-.54,2.46-.16,3.64,0,1.68.23,3.35.31,5,.48a6.83,6.83,0,0,0,3.36,0,.43.43,0,0,1,.25,0,13.39,13.39,0,0,0,5.08.38,2.91,2.91,0,0,0,1.24-.19,4,4,0,0,1,3.79-.07,2.51,2.51,0,0,0,2.38,0,3.46,3.46,0,0,1,2.18-.24,3.93,3.93,0,0,0,1.45,0,4.53,4.53,0,0,1,2.53.21,2.55,2.55,0,0,0,1.92,0,4.37,4.37,0,0,1,3-.28,5,5,0,0,0,3.19,0,6.27,6.27,0,0,1,2.89,0A7.08,7.08,0,0,0,208.09,3c3.65-.9,7.2,3.06,6.45,6.41-.3,1.29-.38,2.65-.55,4a31.38,31.38,0,0,0,0,4.33c0,.82.1,1.63.08,2.46a43.31,43.31,0,0,0,.21,5.22,9.18,9.18,0,0,1,.11,2.46,14.13,14.13,0,0,0,.21,3.24C214.79,33.23,213.64,35.43,211.74,35.78Z" fill="#c67831"/><path d="M32.43,19l-.56-.87a4,4,0,0,0-.74-.57c-.42-.21-.75-.36-1-.45l-.77-.74a3.58,3.58,0,0,0-1.16-.56,4.89,4.89,0,0,1-1.2-.46,9.39,9.39,0,0,1-.91-.84A3.31,3.31,0,0,0,24,14l-.8.07-.51.07-.3,0a7.08,7.08,0,0,1-1.58-.25,6.15,6.15,0,0,1-1-.84,2.22,2.22,0,0,1-.74-1,2.7,2.7,0,0,1-.07-.77c0-1.22.25-2,.74-2.36a9.1,9.1,0,0,1,1.16-.35A4.74,4.74,0,0,0,21.68,8a2.09,2.09,0,0,1,.95-.18,2.52,2.52,0,0,1,1,.28,2.48,2.48,0,0,0,1,.28h.21l.21,0a.87.87,0,0,1,.64.28q1,1.05,1,1.44a1.86,1.86,0,0,1-.32.88c-.21.35-.42.52-.63.52a1.93,1.93,0,0,1-.48-.08,2.12,2.12,0,0,0-.47-.09H24.6l-.11,0c-.26,0-.55-.25-.88-.77s-.56-.77-.7-.77a1,1,0,0,0-.67.4,1.09,1.09,0,0,0-.38.69c0,.16.2.46.61.89a3.83,3.83,0,0,0,.9.79,5.13,5.13,0,0,0,1.3.32,6.84,6.84,0,0,1,.81.07,6.73,6.73,0,0,0,.87.07c.1,0,.27-.1.53-.32a2,2,0,0,1,.53-.35,5.6,5.6,0,0,0,.84-.21c.28-.09.53-.52.74-1.3a1.92,1.92,0,0,0,.56-1.05,1.08,1.08,0,0,0-.49-.92l-.81-.59A3.1,3.1,0,0,0,26,7a7.17,7.17,0,0,1-1.72-.6h-.18l-.18,0a3.71,3.71,0,0,1-.84-.15,3.27,3.27,0,0,0-.84-.16,1.44,1.44,0,0,0-.53.07,16.4,16.4,0,0,0-2.11.95,2.37,2.37,0,0,0-.91.45c-.42.43-.78.8-1.06,1.13-1,.58-1.54,1.24-1.54,2a6.21,6.21,0,0,1,.21,1.86,2.66,2.66,0,0,0,.63,1.79,10.9,10.9,0,0,0,1.48,1,3.42,3.42,0,0,0,1.86,1,3.45,3.45,0,0,0,.7-.11,3.37,3.37,0,0,1,.71-.1,2.41,2.41,0,0,1,1.44.39,4.06,4.06,0,0,0,1.12.63,9.12,9.12,0,0,0,1.16.18,6.15,6.15,0,0,1,1.37,1.16,8.62,8.62,0,0,0,1.34.67,2.06,2.06,0,0,1,.91,1.3,2.61,2.61,0,0,0,.81,1.16,1.71,1.71,0,0,1,.56,1.34,5.42,5.42,0,0,1-.39,1.8,4.43,4.43,0,0,0-.14,1.37,2.79,2.79,0,0,1-.45,1.45,4.32,4.32,0,0,1-1.55,1.58l-.7.21a2.85,2.85,0,0,1-.81.64,2.59,2.59,0,0,1-.95.38l-1.19.14a5.13,5.13,0,0,1-1.8.5A7.2,7.2,0,0,1,21,30.85l-.59-.21c-.85-.16-1.35-.37-1.52-.63a3.51,3.51,0,0,0-.73-1.16l-.07,0L17,28.29a2.7,2.7,0,0,1-1-1.69,3.44,3.44,0,0,1,0-1.27,1.21,1.21,0,0,0,0-.66L16,24.6c0-.19,0-.24.07-.14a5,5,0,0,1,0-1.3c0-.21.05-.37.07-.46A3.25,3.25,0,0,1,17.57,20l.86-.21a2.22,2.22,0,0,0,.79-.45,1.83,1.83,0,0,1,.83-.44q.25,0,.75-.09a5.29,5.29,0,0,1,.74-.07,1.39,1.39,0,0,1,.81.17,8.89,8.89,0,0,1,.95.85c.68.3,1.2.52,1.58.67a5.3,5.3,0,0,1,1.23,1.35,3.56,3.56,0,0,1,.81,1.53,3.29,3.29,0,0,1-.44,1.1A4.33,4.33,0,0,0,26,25.51c-.23,1.5-.75,2.3-1.54,2.39a2,2,0,0,0-.62.18,2.13,2.13,0,0,1-.68.17A6.93,6.93,0,0,1,21.68,28a22.05,22.05,0,0,1-2.07-1.27,2.51,2.51,0,0,1-.39-1.26,2.33,2.33,0,0,1,.07-.74,9.8,9.8,0,0,0,.18-1.58c.09-.4.46-.74,1.12-1a2.23,2.23,0,0,1,.84-.21.82.82,0,0,1,.39.07c.77.56,1.16.93,1.16,1.12s-.32.32-.95.39a1.09,1.09,0,0,0-.68.4,1.25,1.25,0,0,0-.37.72,1,1,0,0,0-.14.42.81.81,0,0,0,.24.6l.25.25a1.47,1.47,0,0,0,1.44,1,.91.91,0,0,0,.56-.18A4.17,4.17,0,0,0,24.72,25a6.23,6.23,0,0,0,.44-1.29,1.91,1.91,0,0,0-.32-1.17,13,13,0,0,0-1.06-.92l-.39-.53c-.38-.19-.67-.31-.86-.39A3.34,3.34,0,0,0,21.15,20a1.32,1.32,0,0,0-.64.18,4.94,4.94,0,0,1-1.7,1,1.56,1.56,0,0,0-.74.71,2.69,2.69,0,0,0-.5,1.34,2.19,2.19,0,0,0,.16.67,2.48,2.48,0,0,1,.15.68,1.63,1.63,0,0,1-.1.42.61.61,0,0,0-.21.43,3.1,3.1,0,0,0,1.86,3,8.7,8.7,0,0,1,.95.57,1.91,1.91,0,0,0,.91.35h2.15A4.13,4.13,0,0,0,25.33,29a5,5,0,0,0,1.16-1.08,3,3,0,0,0,1.41-2c.49-.77.75-1.17.77-1.19a2.27,2.27,0,0,0,.18-1,1.84,1.84,0,0,0-.32-1,9.34,9.34,0,0,0-.88-1.23,6.67,6.67,0,0,1-.24-.73,3.49,3.49,0,0,0-1-1c-.16-.12-.59-.39-1.27-.81-.3-.14-.52-.23-.66-.28-.4-.28-.71-.5-.92-.67,0,0-.29-.1-.81-.32a2.77,2.77,0,0,0-.77-.24,5.16,5.16,0,0,0-.81.09,6.35,6.35,0,0,1-.81.08,1.6,1.6,0,0,1-.36-.08,1.42,1.42,0,0,0-.37-.09,4.16,4.16,0,0,0-1.13.1,3.38,3.38,0,0,0-.91.92,2.14,2.14,0,0,1-1.09.31,4.19,4.19,0,0,0-1.34,1,6.29,6.29,0,0,0-1.05,1,6.45,6.45,0,0,0-.42,2.11c0,.07-.35.56-1,1.48a3.31,3.31,0,0,0-.7,1.72,3.23,3.23,0,0,0,.25,1.09c.42.54.75.93,1,1.19a5.79,5.79,0,0,0,1.06,1.09,5.1,5.1,0,0,1,.84.46l1,.81a8.51,8.51,0,0,0,.88.42,5.23,5.23,0,0,0,2.85,1.37H21l.16.05a.4.4,0,0,0,.15,0,11,11,0,0,0,1.34.11,5.56,5.56,0,0,0,1.63-.35,5.17,5.17,0,0,1,1.5-.35l.37,0a1.86,1.86,0,0,0,.36,0,2.5,2.5,0,0,0,1-.18A9.83,9.83,0,0,0,28.74,31l1.69-1.48A5.73,5.73,0,0,0,32.57,27a8.2,8.2,0,0,0,.6-1.37,11,11,0,0,0,.21-1.48c.26-.8.47-1.39.64-1.79A4.85,4.85,0,0,0,33.31,20,8.54,8.54,0,0,0,32.43,19Z" fill="#321800"/><path d="M53.73,15.74a1.1,1.1,0,0,0-.46-1A10.24,10.24,0,0,0,52,14.2l-.85-.39c-.09-.21-.16-.39-.21-.53a.93.93,0,0,0-1.44.7,1.47,1.47,0,0,0,.56,1.38c1,.28,1.48.58,1.48.91a.53.53,0,0,1-.48.6c-.92.16-1.38.61-1.38,1.33a1.9,1.9,0,0,0,.05.48,6.1,6.1,0,0,0,.48.82,1.75,1.75,0,0,1,.35.77v.18a3.92,3.92,0,0,1-.5.84,11.73,11.73,0,0,0-.59,2c0,.38-.06.72-.11,1-.09.63-.29.95-.6.95s-.63-.3-.77-.91a17,17,0,0,1-.46-2.22,2.32,2.32,0,0,1,.23-.77,2.52,2.52,0,0,0,.23-.67c-.25-.94-.7-1.4-1.33-1.4a1.43,1.43,0,0,0-.54.15,2.18,2.18,0,0,1-.36.16,4.51,4.51,0,0,0-.46-.17,2.91,2.91,0,0,1-.68-.46,1.34,1.34,0,0,0-.78-.39,1.07,1.07,0,0,0-.81.39,1.25,1.25,0,0,0-.35.84,2.33,2.33,0,0,0,.68,1.51.87.87,0,0,1,.2.5.77.77,0,0,1-.31.59,3.11,3.11,0,0,0-.42.46,2.44,2.44,0,0,0-.07.76,1.42,1.42,0,0,1-.18.82c-.24.35-.41.53-.53.53s-.29-.22-.38-.67a2.28,2.28,0,0,1-.18-.46,17.48,17.48,0,0,0-.88-1.65,15.78,15.78,0,0,1-.46-2.53,1.35,1.35,0,0,1,.29-.7,1.45,1.45,0,0,0,.28-.7,1.08,1.08,0,0,0-.53-.92q-.84,0-.84-.45c0-.1.25-.25.77-.46a.87.87,0,0,0,.28-.7,4.33,4.33,0,0,0-.32-1.09c-.09-.24-.17-.47-.24-.71s-.28-.22-.42-.31-.35-.37-.35-.46.15-.37.45-.42a1.74,1.74,0,0,0,.92-.35A1.42,1.42,0,0,0,41,11.28l-.28-.67a1.16,1.16,0,0,0-.53-.49,1.52,1.52,0,0,0-.7-.25c-.28,0-.42.17-.42.5a1.52,1.52,0,0,0,0,.31V11c0,.35-.17.53-.5.53a1.38,1.38,0,0,1-.35-.07,1.3,1.3,0,0,0-.35-.07,1.49,1.49,0,0,0-1.12.6,1.75,1.75,0,0,0-.53,1.19.73.73,0,0,0,.07.35,3.6,3.6,0,0,0,.74.84c.42.21.63.4.63.56s-.12.27-.35.39a3.37,3.37,0,0,0-1.23.94A2.17,2.17,0,0,0,36,17.35a1.07,1.07,0,0,0,.45,1,4,4,0,0,0,1.06.31c.12.05.16.17.14.35a1.43,1.43,0,0,0,0,.67,1.82,1.82,0,0,0,.18.49q.49.63.84,1a9.31,9.31,0,0,1,.07,1c.31.49.55.85.74,1.09.12.46.2.83.25,1.08a11.55,11.55,0,0,0,.45,1.23,3.72,3.72,0,0,1-.4.56,4.45,4.45,0,0,0-.4.56,2.35,2.35,0,0,0,.7,1.48,1,1,0,0,0,.6.17,1.69,1.69,0,0,0,.61-.28,1.63,1.63,0,0,1,.69-.28,1.81,1.81,0,0,1,.54.16,2.15,2.15,0,0,0,.72.16,1.23,1.23,0,0,0,1-.61,2.11,2.11,0,0,0,.42-1.2,1.63,1.63,0,0,0-.27-.74,1.8,1.8,0,0,1-.26-.75.68.68,0,0,1,0-.31c.44-1.35.87-2,1.3-2q.16,0,.45.39a.81.81,0,0,1,0,.25,7.46,7.46,0,0,1,.31,1.47l.64,1.37a5.76,5.76,0,0,1-.23.56,2.41,2.41,0,0,0-.23.81,1.1,1.1,0,0,0,.42.88,1.42,1.42,0,0,0,.95.35A2.68,2.68,0,0,0,49,27.8a1.46,1.46,0,0,1,.5.14,1.78,1.78,0,0,0,.45.14,4.36,4.36,0,0,0,1.16-.28,1.11,1.11,0,0,0,.51-.58,1.9,1.9,0,0,0,.23-.83,1.27,1.27,0,0,0-.4-.77,1.34,1.34,0,0,1-.41-.78l.68-2.14a5.43,5.43,0,0,1,.5-.74l.53-1.09a2.54,2.54,0,0,1,.54-.35,1.58,1.58,0,0,0,.46-1.16V19l-.6-1.08a7.69,7.69,0,0,1,.3-.73A3.48,3.48,0,0,0,53.73,15.74Z" fill="#321800"/><path d="M60.37,24.46h.11l.1,0a3.26,3.26,0,0,0,2.11-1l.81-.21a3.54,3.54,0,0,1,.91-.63,6.34,6.34,0,0,0,1.09-.39,1.45,1.45,0,0,0,.49-.52,1.38,1.38,0,0,0,.28-.64,1.17,1.17,0,0,0-.45-.91c-.24-.14-.42-.25-.56-.32a3.09,3.09,0,0,1-.6-.73,3.15,3.15,0,0,1-1.27-1.2,1.49,1.49,0,0,0-.65-.56,1.82,1.82,0,0,0-.86-.28,5.28,5.28,0,0,0-2.49,1,7.44,7.44,0,0,0-1.06,1.3,1.69,1.69,0,0,1-.38.21,4.3,4.3,0,0,0-1.2,1.26,2.89,2.89,0,0,0-.63,1.51,3.81,3.81,0,0,0,.07.92,2.59,2.59,0,0,0,.42.59c.21.31.36.54.46.71a9,9,0,0,0,.81.74,1.92,1.92,0,0,1,.17.42,9.38,9.38,0,0,0,1.13,1,4.32,4.32,0,0,0,1,1.48,3.54,3.54,0,0,0,1.34.28,8.53,8.53,0,0,0,2.21-1.06A9.21,9.21,0,0,0,65,27c.73-.26,1.09-.55,1.09-.88a1,1,0,0,0,0-.28,4.84,4.84,0,0,1-.81-1.09c-.19-.31-.35-.46-.49-.46a.6.6,0,0,0-.63.56c0,.26,0,.45-.07.57a2,2,0,0,1-1.3.7h-.71l-.61-.19a3,3,0,0,1-.79-.55c-.35-.3-.53-.53-.53-.67S60.25,24.46,60.37,24.46Zm-.81-.53a.79.79,0,0,1-.63-.37,1.23,1.23,0,0,1-.28-.75c0-.17,0-.27.07-.32.35-.56.6-1,.74-1.2l.17-.52a6.71,6.71,0,0,0,.78-1.06.87.87,0,0,1,.73-.49,1,1,0,0,1,.39.07,5.11,5.11,0,0,1,.6,1.2l.35.38a1.51,1.51,0,0,1,.32.92.66.66,0,0,1-.11.45,2.77,2.77,0,0,1-.77.64c-.14.07-.45.18-.92.35a3.06,3.06,0,0,0-.66.37A1.79,1.79,0,0,1,59.56,23.93Z" fill="#321800"/><path d="M73,24.46h.11l.1,0a3.26,3.26,0,0,0,2.11-1l.81-.21a3.54,3.54,0,0,1,.91-.63,6.34,6.34,0,0,0,1.09-.39,1.45,1.45,0,0,0,.49-.52,1.38,1.38,0,0,0,.28-.64,1.17,1.17,0,0,0-.45-.91l-.56-.32a3.09,3.09,0,0,1-.6-.73A3.15,3.15,0,0,1,76,17.92a1.49,1.49,0,0,0-.65-.56,1.82,1.82,0,0,0-.86-.28A5.28,5.28,0,0,0,72,18a7.44,7.44,0,0,0-1.06,1.3,1.69,1.69,0,0,1-.38.21,4.3,4.3,0,0,0-1.2,1.26,2.89,2.89,0,0,0-.63,1.51,3.81,3.81,0,0,0,.07.92,2.59,2.59,0,0,0,.42.59c.21.31.36.54.46.71a9,9,0,0,0,.81.74,1.92,1.92,0,0,1,.17.42,9.38,9.38,0,0,0,1.13,1,4.32,4.32,0,0,0,1,1.48,3.54,3.54,0,0,0,1.34.28,8.53,8.53,0,0,0,2.21-1.06A9.21,9.21,0,0,0,77.62,27c.73-.26,1.09-.55,1.09-.88a1,1,0,0,0,0-.28,4.84,4.84,0,0,1-.81-1.09c-.19-.31-.35-.46-.49-.46a.6.6,0,0,0-.63.56c0,.26,0,.45-.07.57a2,2,0,0,1-1.3.7h-.71l-.61-.19a3,3,0,0,1-.79-.55c-.35-.3-.53-.53-.53-.67S72.83,24.46,73,24.46Zm-.81-.53a.79.79,0,0,1-.63-.37,1.23,1.23,0,0,1-.28-.75c0-.17,0-.27.07-.32.35-.56.6-1,.74-1.2l.17-.52A6.71,6.71,0,0,0,73,19.71a.87.87,0,0,1,.73-.49,1,1,0,0,1,.39.07,5.11,5.11,0,0,1,.6,1.2l.35.38a1.51,1.51,0,0,1,.32.92.66.66,0,0,1-.11.45,2.77,2.77,0,0,1-.77.64c-.14.07-.45.18-.92.35a3.06,3.06,0,0,0-.66.37A1.79,1.79,0,0,1,72.14,23.93Z" fill="#321800"/><path d="M87.61,15.81a2,2,0,0,0-.5.39,1.4,1.4,0,0,1-1,.39c-.37,0-.56-.29-.56-.85s.14-1,.42-1.16a1.66,1.66,0,0,0,.57-.51,1.17,1.17,0,0,0,.31-.65,1.11,1.11,0,0,0-.44-.81,1.34,1.34,0,0,0-.86-.38,1.78,1.78,0,0,0-.51.1,2,2,0,0,1-.44.11c.14,0,0-.06-.49-.18l-.46,0a2.68,2.68,0,0,1-.52-.14,1.33,1.33,0,0,0-.79.42,1.09,1.09,0,0,0-.48.73,1.15,1.15,0,0,0,.55,1l.9.25a1.41,1.41,0,0,1,.28.52,2.24,2.24,0,0,1,.24.91.62.62,0,0,1-.7.7,1.56,1.56,0,0,1-.74-.27,1.68,1.68,0,0,0-.74-.26.4.4,0,0,0-.46.45c0,1.25.28,1.87.85,1.87a1.29,1.29,0,0,0,.61-.27,1.48,1.48,0,0,1,.79-.26c.26,0,.39.29.39.88l-.36,2.13c-.09.54-.15.89-.17,1.05l.28,1.47c.07.4.12.67.14.81,0,.82-.09,1.31-.28,1.47-.77.66-1.16,1.18-1.16,1.58a.79.79,0,0,0,.32.7,3.25,3.25,0,0,0,1.37.7,4.41,4.41,0,0,0,.9-.14,3.61,3.61,0,0,1,.86-.14c.58-.38.88-.76.88-1.16a1.52,1.52,0,0,0-.37-1,4.81,4.81,0,0,1-.62-.79,2.86,2.86,0,0,1-.07-.86V23.05c0-.05,0-.09-.09-.14a6.58,6.58,0,0,0-.13-1.12,6.78,6.78,0,0,1-.13-1.13A8.06,8.06,0,0,1,85.74,18c0-.09.12-.14.31-.14a1.83,1.83,0,0,1,.76.26,1.8,1.8,0,0,0,.7.27c.39,0,.59-.62.59-1.87C88.1,16.05,87.93,15.81,87.61,15.81Z" fill="#321800"/><path d="M103.28,30.08a6.58,6.58,0,0,0-1.34-.91,1.15,1.15,0,0,1-.63-1.06,2.08,2.08,0,0,1,.1-.54,2.35,2.35,0,0,0,.11-.55,1.46,1.46,0,0,0-.39-.81c-.79-.35-1.19-.69-1.19-1,0-.16.2-.4.61-.73a1.74,1.74,0,0,0,.62-1.44,2.13,2.13,0,0,0-.49-1.3A5.4,5.4,0,0,0,99.52,21l-.32-.21a11,11,0,0,0-1.12-.21,5.13,5.13,0,0,1-.81-.78l-.46-.28c-.3-.19-.46-.31-.46-.38l.57-.46a2.54,2.54,0,0,0,.66-.7,6,6,0,0,0,.11-.88v-.74c.14-.59.29-.88.46-.88s.25.2.35.6a1.49,1.49,0,0,0,.74.28,7.53,7.53,0,0,0,.73.25,8.56,8.56,0,0,0,1-.39l.78-.35a1.78,1.78,0,0,0,.42-1.34c0-.19,0-.29,0-.31-.44-.78-.76-1.19-1-1.23a7.73,7.73,0,0,0-1.54-.25.35.35,0,0,1-.21,0l-.18,0a1.12,1.12,0,0,0-.7.29L97,14.16l-.6.46a8.21,8.21,0,0,0-.31,1.05c-.17.33-.3.56-.39.7-.14.61-.23,1.06-.28,1.34a3.92,3.92,0,0,1-.77.77c-.21.59-.37,1-.46,1.34-.26.75-.42,1.12-.49,1.12s-.28-.13-.28-.38a1.54,1.54,0,0,1,.12-.42,1.54,1.54,0,0,0,.12-.42,3,3,0,0,0-.07-.58,4.2,4.2,0,0,1-.07-.58,3.23,3.23,0,0,1,.07-.46,2.14,2.14,0,0,0,.07-.45v-3c0,.07,0-.09-.1-.49a1.64,1.64,0,0,1,0-.7,3.5,3.5,0,0,1,.49-.7,8.84,8.84,0,0,0,0-1.47,9.22,9.22,0,0,1,.57-.92,2.06,2.06,0,0,0,.38-.8c0-.19-.13-.37-.38-.56a1.22,1.22,0,0,0-.71-.28h-.56a2.41,2.41,0,0,1-.77-.18,2.73,2.73,0,0,0-.67-.17,2.76,2.76,0,0,0-1.12.14,1.07,1.07,0,0,0-.53,1.09,1.25,1.25,0,0,0,.35.84,3.61,3.61,0,0,0,.74.49,3.47,3.47,0,0,1,.63,2,2.33,2.33,0,0,1-.07.66q-.18.39-.24.57s0,.12,0,.31,0,.29,0,.32q.24.81.24.63a2.79,2.79,0,0,1-.19.77,3.07,3.07,0,0,0-.2.78,10.65,10.65,0,0,0,.36,1.4,1.86,1.86,0,0,1,0,.28,1.78,1.78,0,0,0,0,.28q0,1.41,0,1.8c.05.54.07.72.07.56a7.57,7.57,0,0,1-.28,1.51c-.07.52-.11.81-.11.88a3.15,3.15,0,0,1,.15.77.52.52,0,0,0,0,.21,1.37,1.37,0,0,1,0,.18l-.17.56a2,2,0,0,1-.57.42,1.29,1.29,0,0,0-.59,1,.33.33,0,0,0,0,.14.59.59,0,0,1,0,.14q.18,1,1,1a2.39,2.39,0,0,0,.53-.09,1.58,1.58,0,0,1,1.05,0,2.39,2.39,0,0,0,.53.09,1.09,1.09,0,0,0,.75-.43,1.2,1.2,0,0,0,.41-.77A8.81,8.81,0,0,0,93.75,25a3,3,0,0,1-.07-.81,2.69,2.69,0,0,1,.78-1.34C95,21.6,95.3,21,95.51,21a6.33,6.33,0,0,1,.77.49,17.68,17.68,0,0,0,1.66.77q.66.47.66.78c0,.18-.17.42-.52.7-.19.33-.33.58-.43.77a1.72,1.72,0,0,1-.4.35c-.22.17-.35.31-.37.43v.38a3.19,3.19,0,0,1-.17.67c0,.49.32.87,1,1.12a5,5,0,0,1,1,.46,5,5,0,0,1,0,1.21,2.68,2.68,0,0,0,.14,1.22,1.92,1.92,0,0,0,1,.7c.42.19.63.31.63.38s-.13.32-.39.39a2,2,0,0,0-.52.18A1.52,1.52,0,0,0,99,33a1.15,1.15,0,0,0,.28.91l1.06.57a2.43,2.43,0,0,0,1.12.66c.51,0,.77-.31.77-.94v-.29a7.91,7.91,0,0,0-.56-.87.26.26,0,0,1,.14-.25,4.38,4.38,0,0,0,.81-.46l.56-.56a1.18,1.18,0,0,1,.25-.1,7.58,7.58,0,0,0,0-1A2.74,2.74,0,0,0,103.28,30.08Z" fill="#af0c0c"/><path d="M114.84,20.06a3.52,3.52,0,0,1,.56-.31,1.79,1.79,0,0,0,.88-1.34c0-.33-.26-.71-.77-1.16a.65.65,0,0,0-.36-.07,1.35,1.35,0,0,0-.79.3,1.24,1.24,0,0,1-.58.3l-.84-.41a3.68,3.68,0,0,0-1.69-.33,2.16,2.16,0,0,1-.63,0h-.46a5.55,5.55,0,0,0-1.12,0,2.43,2.43,0,0,0-1.72,1.27.56.56,0,0,1-.39.31c-.65.26-1,.5-1.12.71a5.35,5.35,0,0,1-.35.74l-.71.92a1.8,1.8,0,0,0-.45,1,4,4,0,0,0,1.4,2.82,2.4,2.4,0,0,1,.21.6,6.64,6.64,0,0,0,1.16,2q.5.6.63.63a11.25,11.25,0,0,0,2.46.28,2.72,2.72,0,0,0,.57,0l.91-.55a4.1,4.1,0,0,1,1-.51c.1,0,.23.15.41.44a1.83,1.83,0,0,0,.37.51,2.37,2.37,0,0,0,1.12.21,1.42,1.42,0,0,0,1.07-.47,1.56,1.56,0,0,0,.44-1.11c0-.3-.35-.6-1-.88-.52-.21-.77-.49-.77-.84a8.41,8.41,0,0,0,.31-2l-.07-1c0-.21,0-.42-.07-.63s0-.33,0-.35A1.27,1.27,0,0,1,114.84,20.06Zm-2.18,3.17a3.07,3.07,0,0,1,.07.56q0,2.75-3.27,2.74a1.62,1.62,0,0,1-1.4-.88,6.8,6.8,0,0,1-.18-1.33,3.39,3.39,0,0,0-.23-.58,2.23,2.23,0,0,1-.23-.83,3.39,3.39,0,0,1,.92-2.39l1-.88c.16-.26.28-.45.35-.6a.76.76,0,0,1,.67-.38,2.59,2.59,0,0,1,1.82.51,2.41,2.41,0,0,1,.53,1.77,7,7,0,0,1-.07.86,7.31,7.31,0,0,0-.07.86A3.26,3.26,0,0,0,112.66,23.23Z" fill="#af0c0c"/><path d="M131.2,11.65a2.12,2.12,0,0,1,.51-.6,1.11,1.11,0,0,0,.42-.68,2.33,2.33,0,0,0-.07-.71,1.65,1.65,0,0,0-1.3-.42l-.67.09-.67.09a2.89,2.89,0,0,1-.6-.09,2.73,2.73,0,0,0-.59-.09,1.88,1.88,0,0,0-.95.28.81.81,0,0,0-.49.7,1.44,1.44,0,0,0,.07.57,2.36,2.36,0,0,0,.59,1.09q.92.66,1,1a3.81,3.81,0,0,1,0,.84c0,.19.07.45.14.78l.11.49a1.75,1.75,0,0,1-.21.77l-.28.56a1,1,0,0,0-.07.43l.1.35.11.84a5.81,5.81,0,0,0,.26.84,6,6,0,0,1,.23.71l0,.38q0,.39,0,.57a3.23,3.23,0,0,1,0,.35,11,11,0,0,0-.24,1.26,12.76,12.76,0,0,0,0,1.58,8.46,8.46,0,0,1-.21,1.16,1.57,1.57,0,0,1-.88,1h-.21a4.5,4.5,0,0,0-.47.52c-.27.33-.48.5-.62.5a1.86,1.86,0,0,1-.68-.2,2.25,2.25,0,0,0-.51-.19,1.71,1.71,0,0,0-.42.07,1.78,1.78,0,0,1-.42.07h-.29a2.31,2.31,0,0,1-.56-.49,2.32,2.32,0,0,0-.6-.52,3,3,0,0,1-.42-1.16,4.24,4.24,0,0,1-.63-1.64,1.9,1.9,0,0,1,.53-1.19c.28-.61.51-1.18.7-1.72a2.48,2.48,0,0,1,2.21-1.22,1.36,1.36,0,0,1,1.2.83,3.05,3.05,0,0,1,.39,1.5c0,.84-.24,1.25-.71,1.25a.71.71,0,0,1-.35-.21c0-.4-.08-.69-.09-.88a.89.89,0,0,0-.3-.56.78.78,0,0,0-.56-.28c-.26,0-.47.18-.63.53a6.41,6.41,0,0,0-.77,2.18,2,2,0,0,0,.24.66,5.87,5.87,0,0,1,.32.74,1.34,1.34,0,0,0,.39.42,1.59,1.59,0,0,0,1.19.39,1.75,1.75,0,0,0,1.62-.88,7.4,7.4,0,0,1,.56-.67,10.16,10.16,0,0,0,.1-1.23,1.94,1.94,0,0,1,.22-.61,2,2,0,0,0,.21-.69,7.56,7.56,0,0,1-.5-1.26,3.85,3.85,0,0,1-.17-.7q-.53-1-.81-1.41c-.23-.7-1-1.05-2.35-1.05a3.67,3.67,0,0,0-1.76.8,20.44,20.44,0,0,1-1.83,1.23,1.7,1.7,0,0,0-1,1.66,12.56,12.56,0,0,1-1,1.51,3,3,0,0,0-.11.88,1.67,1.67,0,0,0,.6,1.15,9,9,0,0,1,.63,1,10.66,10.66,0,0,0,.94.81,2.67,2.67,0,0,1,.14.66,2.3,2.3,0,0,0,.93,1.18,2.42,2.42,0,0,0,1.41.51H124a1.13,1.13,0,0,0,.33-.07,1.19,1.19,0,0,1,.34-.07,2.41,2.41,0,0,1,.5.07,2.41,2.41,0,0,0,.51.07,1.57,1.57,0,0,0,.7-.1,10.7,10.7,0,0,1,1.22-.21,1.51,1.51,0,0,0,.61-.22,1.55,1.55,0,0,1,.55-.21,2.53,2.53,0,0,1,.94.44,3.33,3.33,0,0,0,.8.44A1.35,1.35,0,0,0,131.92,27c.14-.28.21-.39.21-.32s-.08-.19-.24-.35a1.59,1.59,0,0,0-.44-.74,6.12,6.12,0,0,1-.81-.63,3.26,3.26,0,0,1-.07-.57,2.13,2.13,0,0,0-.13-.58,2.17,2.17,0,0,1-.14-.61,3.36,3.36,0,0,1,0-.39,2.31,2.31,0,0,0,.06-.39,9.2,9.2,0,0,1,0-1.37c.09-.87.14-1.42.14-1.66s0-.41-.12-.95a2,2,0,0,1,0-.49,9.76,9.76,0,0,1,.11-1.44l.27-.92a2.12,2.12,0,0,0-.24-1.12,3.31,3.31,0,0,1-.14-.67,2.09,2.09,0,0,1,.5-1.34C131.05,12.06,131.14,11.78,131.2,11.65Z" fill="#af0c0c"/><path d="M144.92,20.06a3.52,3.52,0,0,1,.56-.31,1.79,1.79,0,0,0,.88-1.34c0-.33-.26-.71-.77-1.16a.65.65,0,0,0-.36-.07,1.35,1.35,0,0,0-.79.3,1.24,1.24,0,0,1-.58.3l-.84-.41a3.65,3.65,0,0,0-1.69-.33,2.16,2.16,0,0,1-.63,0h-.46a5.55,5.55,0,0,0-1.12,0,2.43,2.43,0,0,0-1.72,1.27.56.56,0,0,1-.39.31c-.65.26-1,.5-1.12.71a5.35,5.35,0,0,1-.35.74l-.71.92a1.8,1.8,0,0,0-.45,1,4,4,0,0,0,1.4,2.82,2.4,2.4,0,0,1,.21.6,6.64,6.64,0,0,0,1.16,2c.33.4.54.61.64.63a11.1,11.1,0,0,0,2.45.28,2.72,2.72,0,0,0,.57,0l.91-.55a4.1,4.1,0,0,1,1-.51c.1,0,.23.15.41.44a1.83,1.83,0,0,0,.37.51,2.4,2.4,0,0,0,1.12.21,1.42,1.42,0,0,0,1.07-.47,1.56,1.56,0,0,0,.44-1.11c0-.3-.35-.6-1.05-.88-.52-.21-.77-.49-.77-.84a8.41,8.41,0,0,0,.31-2l-.07-1c0-.21-.05-.42-.07-.63s0-.33,0-.35A1.27,1.27,0,0,1,144.92,20.06Zm-2.18,3.17a3.07,3.07,0,0,1,.07.56q0,2.75-3.27,2.74a1.62,1.62,0,0,1-1.4-.88,6.8,6.8,0,0,1-.18-1.33,3.39,3.39,0,0,0-.23-.58,2.23,2.23,0,0,1-.23-.83,3.39,3.39,0,0,1,.92-2.39l1-.88c.16-.26.28-.45.35-.6a.76.76,0,0,1,.67-.38,2.59,2.59,0,0,1,1.82.51,2.41,2.41,0,0,1,.53,1.77,7,7,0,0,1-.07.86,7.31,7.31,0,0,0-.07.86A3.26,3.26,0,0,0,142.74,23.23Z" fill="#af0c0c"/><path d="M150.68,15.81a1.44,1.44,0,0,0,.76-.26A1.19,1.19,0,0,0,152,15a7.61,7.61,0,0,0,.1-1,.68.68,0,0,1,0-.21,1.14,1.14,0,0,0,0-.21l-.07-.49c0-.19-.19-.38-.49-.58a1.48,1.48,0,0,0-.77-.3.87.87,0,0,0-.56.17,9.36,9.36,0,0,0-1.09,1.06.38.38,0,0,0-.11.28A18.29,18.29,0,0,0,150,15.5,1.15,1.15,0,0,0,150.68,15.81Z" fill="#af0c0c"/><path d="M151.23,28.24h-.06" fill="none" stroke="#af0c0c" stroke-linecap="round" stroke-linejoin="round" stroke-width="0"/><path d="M152,25.19a4.33,4.33,0,0,1,0-.87v-.64l-.1-.45a2.15,2.15,0,0,1-.11-.57V21.54a3.41,3.41,0,0,1,.25-1.72,12.85,12.85,0,0,0,.84-1.2.66.66,0,0,0,.11-.45,1.1,1.1,0,0,0-.36-.76,1,1,0,0,0-.73-.37,1.82,1.82,0,0,0-.6.18,1.73,1.73,0,0,1-.6.17,1.38,1.38,0,0,1-.4-.12,1.42,1.42,0,0,0-.41-.12.85.85,0,0,0-1,1,3.67,3.67,0,0,0,.07.77,5.11,5.11,0,0,0,.93.81,1.73,1.73,0,0,1,.11.52,3.59,3.59,0,0,1,.26.71l-.14.84c-.12.75-.18,1-.18.88a2.23,2.23,0,0,0,.07.6,2,2,0,0,1,.25.73,7.49,7.49,0,0,1-.11,1.52,4.53,4.53,0,0,1-.7,1,1,1,0,0,0-.17.57.73.73,0,0,0,.59.74,5.08,5.08,0,0,1,1.36.44,1.72,1.72,0,0,0,.44-.15,1.46,1.46,0,0,1,.49-.15h.1l.07,0c.57,0,.85-.29.85-.88a1.9,1.9,0,0,0-.78-1.3A.94.94,0,0,1,152,25.19Z" fill="#af0c0c"/><path d="M158.69,24.18l-.07-.11a.82.82,0,0,0-.56-.14.73.73,0,0,0-.46.11,7.71,7.71,0,0,0-.7.77,1.21,1.21,0,0,0-.74,1,3.89,3.89,0,0,0,.85,1.79,1.12,1.12,0,0,0,1,.49.73.73,0,0,0,.39-.07c.3-.28.56-.54.77-.77a1.18,1.18,0,0,1,.39-.18c.35-.11.52-.42.52-.91a2.55,2.55,0,0,0-.66-1.09A7.55,7.55,0,0,1,158.69,24.18Z" fill="#321800"/><path d="M172.75,23.61a.44.44,0,0,0-.21-.07,2,2,0,0,0-1.16.39,2.14,2.14,0,0,0-.56.9,1.91,1.91,0,0,1-1.9,1.31l-.26,0a1.13,1.13,0,0,0-.3,0,4.23,4.23,0,0,1-.81-.19,2.47,2.47,0,0,1-.77-.3,4.38,4.38,0,0,1-1.37-2.2,3.74,3.74,0,0,1-.21-1,3.07,3.07,0,0,1,.28-1.17,8.11,8.11,0,0,1,.42-.74,7.77,7.77,0,0,0,.21-.86,1.86,1.86,0,0,1,.67-.85l.91-.42a3.41,3.41,0,0,1,1.09-.11.82.82,0,0,1,.74.39,5.77,5.77,0,0,1,.35.82l.49.93a1.1,1.1,0,0,0,.88.53,12.84,12.84,0,0,0,1.4-.17.64.64,0,0,0,.53-.32,2.6,2.6,0,0,0,.21-.95,2.23,2.23,0,0,0-.07-.67,2.63,2.63,0,0,0-.95-1.12,1.43,1.43,0,0,0-.73-.39,3.72,3.72,0,0,1-1.39-.51,3.39,3.39,0,0,0-1.43-.47,6.6,6.6,0,0,0-.87,0c-.52.19-.89.32-1.13.39a8.41,8.41,0,0,0-1.65,1.2l-.63.31a8.19,8.19,0,0,0-1.09,1.27,3.59,3.59,0,0,1-.44.4,1.77,1.77,0,0,0-.51.58,4.47,4.47,0,0,0-.32,1.86,2.06,2.06,0,0,0,.67,1.76,6,6,0,0,1,1.09.81c.8,1.73,1.77,2.79,2.92,3.16a7.13,7.13,0,0,0,1,0l.42-.16a1.56,1.56,0,0,1,.56-.16,7.68,7.68,0,0,1,.91-.07l2.39-.81A2.51,2.51,0,0,0,173.77,25a1.32,1.32,0,0,1,0-.25.77.77,0,0,0,.05-.24C173.87,24,173.5,23.71,172.75,23.61Z" fill="#321800"/><path d="M185.12,19.15l-.35-.84a11.31,11.31,0,0,0-1.69-1.23,5.62,5.62,0,0,0-1.76-.32c-.21,0-.66.33-1.37,1a2.46,2.46,0,0,1-.7.29c-.77.49-1.29.84-1.55,1-.35.42-.56.67-.63.74a4.62,4.62,0,0,0-1.16,1.93,3.12,3.12,0,0,0,1,2.64,10,10,0,0,1,.92.77c.25.37.45.69.59.95.45.44.79.76,1,.95a2.05,2.05,0,0,0,1.76,1.12c1.12,0,1.8-.17,2-.53l.88-1.3a5.33,5.33,0,0,0,1.51-1.86c1-.79,1.47-1.5,1.47-2.11a2.6,2.6,0,0,0-.42-1.58C186,20.08,185.52,19.53,185.12,19.15Zm-.84,3.76a3.3,3.3,0,0,1,0,.56,5.21,5.21,0,0,1-.63.81,2.25,2.25,0,0,0-.25.46c-.16.3-.52.45-1.09.45a3.34,3.34,0,0,1-1,.6c-.23,0-.62-.27-1.16-.81-.53-.25-.82-.43-.84-.52a6,6,0,0,1-.63-1.94,2.68,2.68,0,0,1,.14-1.05c.21-.3.39-.54.53-.7a2.25,2.25,0,0,1,1-1.37,3.94,3.94,0,0,1,1.23-.28c.14,0,.57.15,1.3.38.16.05.31.24.45.56a6.85,6.85,0,0,1,.32.71,10.08,10.08,0,0,0,.67,1Z" fill="#321800"/><path d="M204.38,27.8c-.33-.66-.57-1.15-.71-1.48a8.42,8.42,0,0,1-.1-1.23v-.7a2.62,2.62,0,0,0-.33-1.2l-.76-1c0-.37,0-.65,0-.84a3.51,3.51,0,0,1-.21-.67.2.2,0,0,1,.11-.17l.6-.5a4.86,4.86,0,0,0,.38-.59,4.65,4.65,0,0,1,.67-.18.81.81,0,0,0,.67-.84,1.45,1.45,0,0,0-.41-.9,1.13,1.13,0,0,0-.82-.47,2.55,2.55,0,0,0-1.18.37,2.78,2.78,0,0,1-.93.37,2.29,2.29,0,0,1-.86-.27,2.52,2.52,0,0,0-.9-.26,1.56,1.56,0,0,0-.37.07,1.48,1.48,0,0,1-.37.07,1.85,1.85,0,0,1-.59-.18,2.05,2.05,0,0,0-.71-.17,1.62,1.62,0,0,0-.54.19,1.58,1.58,0,0,1-.55.19h-.28l-.31,0a5.39,5.39,0,0,0-1.27.21,2.94,2.94,0,0,1-1-.4,3,3,0,0,0-1.39-.41q-1.23,0-1.23,1c0,.28.31.74,1,1.37a3.65,3.65,0,0,1,.52,1.41,5.38,5.38,0,0,1,.14,1.19.81.81,0,0,1-.1.46,9.92,9.92,0,0,0-1.3,2v2.29a4.11,4.11,0,0,1-1,2.35c-.28.3-.49.54-.63.7a1.93,1.93,0,0,0-.18.74.8.8,0,0,0,.35.67,8.05,8.05,0,0,0,1.09.42,3.07,3.07,0,0,0,.95.56h.84q.6,0,.6-.84a2.24,2.24,0,0,0-.3-.91,2.32,2.32,0,0,1-.3-.92,2.5,2.5,0,0,1,.36-1,2.72,2.72,0,0,0,.35-1.15,2.45,2.45,0,0,0-.13-.68,2.84,2.84,0,0,1-.12-.69,5.18,5.18,0,0,1,.28-1.75,12.44,12.44,0,0,1,1.06-1.76,5.39,5.39,0,0,0,0-1.37c.09-.92.52-1.37,1.27-1.37a.93.93,0,0,1,.72.51,1.75,1.75,0,0,1,.33.93,5.17,5.17,0,0,0-.17.91V23c-.22.7-.34,1.12-.39,1.26a1.9,1.9,0,0,0,.09.49,2.39,2.39,0,0,1,.08.5,1.58,1.58,0,0,1-.47.94,1.65,1.65,0,0,0-.47.81,1.1,1.1,0,0,0,.28.62c.18.24.36.37.52.37a1.12,1.12,0,0,0,.55-.21,1.61,1.61,0,0,1,.37-.22,1.76,1.76,0,0,1,.44.09,1.68,1.68,0,0,0,.44.09c.51,0,.77-.3.77-.91a4.06,4.06,0,0,0-.35-1.3,3.86,3.86,0,0,1-.35-1.27.93.93,0,0,1,.17-.49,1.37,1.37,0,0,0,.28-.74,3.24,3.24,0,0,0-.17-.95,3,3,0,0,1-.32-1,3.57,3.57,0,0,1,.25-1.16.66.66,0,0,1,.42-.24l.49-.21c.56,0,.87.23.91.7a1.38,1.38,0,0,0,.11.42c.26.4.46.69.6.88,0,.59.05,1,.08,1.25a3.94,3.94,0,0,0,.5,1.14,2.82,2.82,0,0,1,.44,1.12,2.11,2.11,0,0,1-.18.74,2.15,2.15,0,0,0-.18.67,2.6,2.6,0,0,0,.07.6,6.81,6.81,0,0,0,.45,1.37,5,5,0,0,1-.3.91v.39c0,.75.25,1.12.77,1.12a1.24,1.24,0,0,0,.75-.37,2.79,2.79,0,0,1,1.23-.51.88.88,0,0,0,.79-1,.75.75,0,0,0-.28-.7C204.58,28,204.4,27.87,204.38,27.8Z" fill="#321800"/></svg>